<svg width="574.4300659179687px" height="103.5199981689453px" xmlns="http://www.w3.org/2000/svg" viewBox="-37.21503295898435 23.240000915527347 574.4300659179687 103.5199981689453" style="background: rgba(0, 0, 0, 0);" preserveAspectRatio="xMidYMid"><defs><filter id="editing-vr"><feFlood flood-color="#f00" flood-opacity="0.7" result="c1"></feFlood><feFlood flood-color="#00f" flood-opacity="0.7" result="c3"></feFlood><feComposite operator="in" in="c1" in2="SourceAlpha" result="text-c1"></feComposite><feComposite operator="in" in="c3" in2="SourceAlpha" result="text-c3"></feComposite><feOffset in="text-c1" dx="3" dy="-1" result="text1"></feOffset><feOffset in="text-c3" dx="-3" dy="1" result="text3"></feOffset><feBlend in="SourceGraphic" in2="text1" mode="multiply" result="text4"></feBlend><feBlend in="text4" in2="text3" mode="multiply"></feBlend></filter></defs><g filter="url(#editing-vr)"><g transform="translate(46.45501971244812, 94.875)"><path d="M6.36 0L0.53 0L6.89-34.98L18.29-34.98L26.55-10.92L30.95-34.98L36.84-34.93L30.37 0L18.23 0L10.60-23.16L6.36 0ZM59.63-8.96L59.63-8.96L59.63-8.96Q60.95-8.06 60.95-6.07L60.95-6.07L60.95-6.07Q60.95-4.08 59.94-2.81L59.94-2.81L59.94-2.81Q58.94-1.54 57.29-0.69L57.29-0.69L57.29-0.69Q53.90 1.06 50.24 1.06L50.24 1.06L50.24 1.06Q46.59 1.06 44.44 0.27L44.44 0.27L44.44 0.27Q42.29-0.53 40.86-2.01L40.86-2.01L40.86-2.01Q38.05-4.82 38.05-9.96L38.05-9.96L38.05-9.96Q38.05-17.97 42.40-22.84L42.40-22.84L42.40-22.84Q47.06-28.09 55.17-28.09L55.17-28.09L55.17-28.09Q60.21-28.09 62.70-25.97L62.70-25.97L62.70-25.97Q64.55-24.38 64.55-21.78L64.55-21.78L64.55-21.78Q64.55-12.46 48.44-12.46L48.44-12.46L48.44-12.46Q48.23-11.08 48.23-9.91L48.23-9.91L48.23-9.91Q48.23-7.47 49.32-6.55L49.32-6.55L49.32-6.55Q50.40-5.62 52.42-5.62L52.42-5.62L52.42-5.62Q54.43-5.62 56.58-6.55L56.58-6.55L56.58-6.55Q58.72-7.47 59.63-8.96ZM48.81-14.73L48.81-14.73L48.81-14.73Q52.58-14.73 54.75-17.07L54.75-17.07L54.75-17.07Q56.92-19.29 56.92-22.84L56.92-22.84L56.92-22.84Q56.92-24.06 56.47-24.72L56.47-24.72L56.47-24.72Q56.02-25.39 55.12-25.39L55.12-25.39L55.12-25.39Q54.22-25.39 53.45-25.04L53.45-25.04L53.45-25.04Q52.68-24.70 51.89-23.53L51.89-23.53L51.89-23.53Q49.93-20.88 48.81-14.73ZM105.89-8.85L105.89-8.85Q102.40-4.03 99.03-1.48L99.03-1.48L99.03-1.48Q95.66 1.06 92.19 1.06L92.19 1.06L92.19 1.06Q88.72 1.06 87.50 0.37L87.50 0.37L87.50-11.29L87.50-11.29Q84.48-3.23 79.08-0.11L79.08-0.11L79.08-0.11Q77.11 1.06 75.26 1.06L75.26 1.06L75.26 1.06Q71.71 1.06 70.17 0.37L70.17 0.37L70.17 0.37Q69.80-11.77 69.48-15.13L69.48-15.13L69.48-15.13Q69.16-18.50 68.90-20.56L68.90-20.56L68.90-20.56Q68.37-24.70 66.57-26.39L66.57-26.39L66.57-26.39Q68.85-28.09 72.03-28.09L72.03-28.09L72.03-28.09Q78.17-28.09 79.02-20.46L79.02-20.46L79.02-20.46Q79.23-18.66 79.23-16.75L79.23-16.75L79.23-16.75Q79.23-13.89 78.60-3.92L78.60-3.92L78.60-3.92Q79.87-4.50 81.22-6.60L81.22-6.60L81.22-6.60Q82.57-8.69 83.69-11.55L83.69-11.55L83.69-11.55Q86.18-18.18 86.18-23.90L86.18-23.90L86.18-23.90Q86.18-24.80 85.94-25.76L85.94-25.76L85.94-25.76Q85.70-26.71 85.44-26.98L85.44-26.98L85.44-26.98Q87.29-28.09 90.13-28.09L90.13-28.09L90.13-28.09Q92.96-28.09 94.31-26.16L94.31-26.16L94.31-26.16Q95.66-24.22 96.04-20.67L96.04-20.67L96.04-20.67Q96.46-16.16 96.46-13.46L96.46-13.46L96.46-13.46Q96.46-9.70 96.09-4.13L96.09-4.13L96.09-4.13Q98.74-6.04 100.91-12.30L100.91-12.30L100.91-12.30Q103.08-18.55 103.08-23.00L103.08-23.00L103.08-23.00Q103.08-24.96 102.77-26.13L102.77-26.13L102.77-26.13Q104.52-28.09 107.54-28.09L107.54-28.09L107.54-28.09Q109.39-28.09 110.74-27.08L110.74-27.08L110.74-27.08Q112.09-26.08 112.09-24.19L112.09-24.19L112.09-24.19Q112.09-22.31 111.54-20.30L111.54-20.30L111.54-20.30Q110.98-18.29 110.08-16.22L110.08-16.22L110.08-16.22Q108.33-12.08 105.89-8.85L105.89-8.85ZM134.99-8.96L134.99-8.96L134.99-8.96Q136.32-8.06 136.32-6.07L136.32-6.07L136.32-6.07Q136.32-4.08 135.31-2.81L135.31-2.81L135.31-2.81Q134.30-1.54 132.66-0.69L132.66-0.69L132.66-0.69Q129.27 1.06 125.61 1.06L125.61 1.06L125.61 1.06Q121.95 1.06 119.81 0.27L119.81 0.27L119.81 0.27Q117.66-0.53 116.23-2.01L116.23-2.01L116.23-2.01Q113.42-4.82 113.42-9.96L113.42-9.96L113.42-9.96Q113.42-17.97 117.77-22.84L117.77-22.84L117.77-22.84Q122.43-28.09 130.54-28.09L130.54-28.09L130.54-28.09Q135.57-28.09 138.06-25.97L138.06-25.97L138.06-25.97Q139.92-24.38 139.92-21.78L139.92-21.78L139.92-21.78Q139.92-12.46 123.81-12.46L123.81-12.46L123.81-12.46Q123.60-11.08 123.60-9.91L123.60-9.91L123.60-9.91Q123.60-7.47 124.68-6.55L124.68-6.55L124.68-6.55Q125.77-5.62 127.78-5.62L127.78-5.62L127.78-5.62Q129.80-5.62 131.94-6.55L131.94-6.55L131.94-6.55Q134.09-7.47 134.99-8.96ZM124.18-14.73L124.18-14.73L124.18-14.73Q127.94-14.73 130.12-17.07L130.12-17.07L130.12-17.07Q132.29-19.29 132.29-22.84L132.29-22.84L132.29-22.84Q132.29-24.06 131.84-24.72L131.84-24.72L131.84-24.72Q131.39-25.39 130.49-25.39L130.49-25.39L130.49-25.39Q129.59-25.39 128.82-25.04L128.82-25.04L128.82-25.04Q128.05-24.70 127.25-23.53L127.25-23.53L127.25-23.53Q125.29-20.88 124.18-14.73ZM157.57-18.60L157.57-18.60L157.57-18.60Q158.31-20.56 158.31-22.26L158.31-22.26L158.31-22.26Q158.31-25.39 155.77-25.39L155.77-25.39L155.77-25.39Q154.44-25.39 153.36-24.19L153.36-24.19L153.36-24.19Q152.27-23.00 152.27-21.52L152.27-21.52L152.27-21.52Q152.27-20.46 153.12-19.61L153.12-19.61L153.12-19.61Q154.34-18.44 157.46-16.54L157.46-16.54L157.46-16.54Q160.59-14.63 161.78-13.06L161.78-13.06L161.78-13.06Q162.97-11.50 162.97-9.35L162.97-9.35L162.97-9.35Q162.97-7.21 161.94-5.25L161.94-5.25L161.94-5.25Q160.91-3.29 159.05-1.91L159.05-1.91L159.05-1.91Q155.08 1.06 148.72 1.06L148.72 1.06L148.72 1.06Q145.27 1.06 142.62-0.74L142.62-0.74L142.62-0.74Q139.97-2.49 139.97-4.56L139.97-4.56L139.97-4.56Q139.97-6.63 141.48-7.84L141.48-7.84L141.48-7.84Q142.99-9.06 145.22-9.06L145.22-9.06L145.22-9.06Q147.45-9.06 148.82-8.21L148.82-8.21L148.82-8.21Q148.13-6.47 148.13-5.30L148.13-5.30L148.13-5.30Q148.13-1.80 151.10-1.80L151.10-1.80L151.10-1.80Q152.38-1.80 153.22-2.60L153.22-2.60L153.22-2.60Q154.07-3.39 154.07-4.77L154.07-4.77L154.07-4.77Q154.07-7.47 149.51-10.33L149.51-10.33L149.51-10.33Q145.80-12.77 144.95-13.73L144.95-13.73L144.95-13.73Q143.52-15.42 143.52-17.54L143.52-17.54L143.52-17.54Q143.52-19.66 144.53-21.68L144.53-21.68L144.53-21.68Q145.54-23.69 147.39-25.12L147.39-25.12L147.39-25.12Q151.26-28.09 157.99-28.09L157.99-28.09L157.99-28.09Q161.44-28.09 163.48-26.71L163.48-26.71L163.48-26.71Q165.52-25.33 165.52-23.00L165.52-23.00L165.52-23.00Q165.52-20.67 164.11-19.34L164.11-19.34L164.11-19.34Q162.71-18.02 160.17-18.02L160.17-18.02L160.17-18.02Q158.42-18.02 157.57-18.60ZM168.33-5.30L168.33-5.30L168.33-5.30Q168.33-6.73 169.07-10.33L169.07-10.33L171.88-24.64L168.75-24.64L168.96-26.23L168.96-26.23Q175.32-28.14 181.47-32.81L181.47-32.81L184.02-32.81L182.74-27.03L186.88-27.03L186.40-24.64L182.32-24.64L179.62-10.33L179.62-10.33Q178.93-7.05 178.93-5.94L178.93-5.94L178.93-5.94Q178.93-3.39 181.15-2.86L181.15-2.86L181.15-2.86Q180.62-1.06 178.72 0L178.72 0L178.72 0Q176.81 1.06 174.11 1.06L174.11 1.06L174.11 1.06Q171.40 1.06 169.87-0.64L169.87-0.64L169.87-0.64Q168.33-2.33 168.33-5.30ZM220.80 1.06L220.80 1.06L220.80 1.06Q214.01 1.06 213.38-8.59L213.38-8.59L204.26-8.59L204.26-8.59Q203.20-6.15 202.46-4.03L202.46-4.03L201.08 0L193.66 0L210.36-34.98L221.75-34.98L223.98-9.22L223.98-9.22Q224.51-3.66 226.63-2.01L226.63-2.01L226.63-2.01Q225.09 1.06 220.80 1.06ZM208.82-19.19L205.91-12.46L213.22-12.46L212.58-26.08L212.58-27.51L208.82-19.19ZM246.29-14.89L246.29-14.89L246.29-14.89Q248.20-18.29 248.20-21.73L248.20-21.73L248.20-21.73Q248.20-24.01 246.56-24.01L246.56-24.01L246.56-24.01Q245.28-24.01 243.96-21.84L243.96-21.84L243.96-21.84Q242.58-19.66 242.16-16.85L242.16-16.85L239.40 0L228.43 1.06L233.84-27.03L242.58-28.09L241.63-22.74L241.63-22.74Q244.22-28.09 250.05-28.09L250.05-28.09L250.05-28.09Q253.13-28.09 254.80-26.50L254.80-26.50L254.80-26.50Q256.47-24.91 256.47-21.65L256.47-21.65L256.47-21.65Q256.47-18.39 254.32-16.32L254.32-16.32L254.32-16.32Q252.17-14.26 248.52-14.26L248.52-14.26L248.52-14.26Q246.93-14.26 246.29-14.89ZM273.90-14.89L273.90-14.89L273.90-14.89Q275.81-18.29 275.81-21.73L275.81-21.73L275.81-21.73Q275.81-24.01 274.17-24.01L274.17-24.01L274.17-24.01Q272.90-24.01 271.57-21.84L271.57-21.84L271.57-21.84Q270.19-19.66 269.77-16.85L269.77-16.85L267.01 0L256.04 1.06L261.45-27.03L270.19-28.09L269.24-22.74L269.24-22.74Q271.84-28.09 277.67-28.09L277.67-28.09L277.67-28.09Q280.74-28.09 282.41-26.50L282.41-26.50L282.41-26.50Q284.08-24.91 284.08-21.65L284.08-21.65L284.08-21.65Q284.08-18.39 281.93-16.32L281.93-16.32L281.93-16.32Q279.79-14.26 276.13-14.26L276.13-14.26L276.13-14.26Q274.54-14.26 273.90-14.89ZM297.65-2.92L297.65-2.92L297.65-2.92Q296.00 1.06 290.76 1.06L290.76 1.06L290.76 1.06Q288.06 1.06 286.36-0.79L286.36-0.79L286.36-0.79Q284.93-2.44 284.93-4.08L284.93-4.08L284.93-4.08Q284.93-8.37 286.89-16.75L286.89-16.75L288.85-27.03L299.61-28.09L296.38-11.34L296.38-11.34Q295.47-7.42 295.47-6.04L295.47-6.04L295.47-6.04Q295.47-3.02 297.65-2.92ZM289.80-34.40L289.80-34.40L289.80-34.40Q289.80-36.46 291.53-37.58L291.53-37.58L291.53-37.58Q293.25-38.69 295.74-38.69L295.74-38.69L295.74-38.69Q298.23-38.69 299.74-37.58L299.74-37.58L299.74-37.58Q301.25-36.46 301.25-34.40L301.25-34.40L301.25-34.40Q301.25-32.33 299.58-31.27L299.58-31.27L299.58-31.27Q297.91-30.21 295.42-30.21L295.42-30.21L295.42-30.21Q292.93-30.21 291.37-31.27L291.37-31.27L291.37-31.27Q289.80-32.33 289.80-34.40ZM321.39-26.13L321.39-26.13L321.39-26.13Q323.14-28.09 326.16-28.09L326.16-28.09L326.16-28.09Q328.02-28.09 329.45-27.08L329.45-27.08L329.45-27.08Q330.88-26.08 330.88-24.19L330.88-24.19L330.88-24.19Q330.88-22.31 330.30-20.30L330.30-20.30L330.30-20.30Q329.71-18.29 328.81-16.22L328.81-16.22L328.81-16.22Q327.01-12.19 324.52-8.85L324.52-8.85L324.52-8.85Q321.02-4.03 317.66-1.48L317.66-1.48L317.66-1.48Q314.29 1.06 310.63 1.06L310.63 1.06L310.63 1.06Q307.67 1.06 305.86 0.37L305.86 0.37L305.86 0.37Q305.55-10.76 305.15-14.73L305.15-14.73L305.15-14.73Q304.75-18.71 304.43-20.88L304.43-20.88L304.43-20.88Q303.90-25.12 302.31-26.13L302.31-26.13L302.31-26.13Q303.53-27.19 304.72-27.64L304.72-27.64L304.72-27.64Q305.92-28.09 308.38-28.09L308.38-28.09L308.38-28.09Q310.85-28.09 312.59-26.16L312.59-26.16L312.59-26.16Q314.34-24.22 314.69-20.80L314.69-20.80L314.69-20.80Q315.03-17.38 315.03-13.25L315.03-13.25L315.03-13.25Q315.03-9.12 314.71-4.13L314.71-4.13L314.71-4.13Q316.36-5.30 318.11-8.85L318.11-8.85L318.11-8.85Q320.49-13.78 321.34-19.72L321.34-19.72L321.34-19.72Q321.60-21.52 321.60-23.43L321.60-23.43L321.60-23.43Q321.60-25.33 321.39-26.13ZM334.62-1.59L334.62-1.59L334.62-1.59Q333.37-2.97 332.81-5.14L332.81-5.14L332.81-5.14Q332.26-7.31 332.26-10.87L332.26-10.87L332.26-10.87Q332.26-14.42 333.48-17.65L333.48-17.65L333.48-17.65Q334.69-20.88 336.92-23.21L336.92-23.21L336.92-23.21Q341.48-28.09 349.00-28.09L349.00-28.09L349.00-28.09Q351.71-28.09 353.67-27.19L353.67-27.19L362.73-28.09L358.81-7.42L358.81-7.42Q358.65-6.78 358.65-5.62L358.65-5.62L358.65-5.62Q358.65-4.45 359.37-3.71L359.37-3.71L359.37-3.71Q360.08-2.97 361.14-2.86L361.14-2.86L361.14-2.86Q360.61-1.06 358.68 0L358.68 0L358.68 0Q356.74 1.06 354.57 1.06L354.57 1.06L354.57 1.06Q352.40 1.06 350.94 0.24L350.94 0.24L350.94 0.24Q349.48-0.58 349.06-1.96L349.06-1.96L349.06-1.96Q348.21-0.64 346.41 0.21L346.41 0.21L346.41 0.21Q344.61 1.06 342.19 1.06L342.19 1.06L342.19 1.06Q339.78 1.06 337.82 0.42L337.82 0.42L337.82 0.42Q335.86-0.21 334.62-1.59ZM345.80-23.11L345.80-23.11L345.80-23.11Q345.19-22.15 344.66-20.54L344.66-20.54L344.66-20.54Q344.13-18.92 343.25-14.60L343.25-14.60L343.25-14.60Q342.38-10.28 342.38-7.21L342.38-7.21L342.38-7.21Q342.38-4.13 342.86-3.23L342.86-3.23L342.86-3.23Q343.33-2.33 344.18-2.33L344.18-2.33L344.18-2.33Q345.88-2.33 347.12-3.95L347.12-3.95L347.12-3.95Q348.37-5.56 348.85-8.43L348.85-8.43L351.65-23.96L351.65-23.96Q350.54-24.91 349.24-24.91L349.24-24.91L349.24-24.91Q347.94-24.91 347.18-24.49L347.18-24.49L347.18-24.49Q346.41-24.06 345.80-23.11ZM378.26-2.92L378.26-2.92L378.26-2.92Q376.62 1.06 371.37 1.06L371.37 1.06L371.37 1.06Q368.72 1.06 367.02-0.79L367.02-0.79L367.02-0.79Q365.65-2.33 365.65-4.08L365.65-4.08L365.65-4.08Q365.65-8.06 367.50-16.75L367.50-16.75L371.37-37.10L382.13-38.16L376.99-11.34L376.99-11.34Q376.09-7.42 376.09-6.04L376.09-6.04L376.09-6.04Q376.09-3.02 378.26-2.92ZM398.61-18.60L398.61-18.60L398.61-18.60Q399.36-20.56 399.36-22.26L399.36-22.26L399.36-22.26Q399.36-25.39 396.81-25.39L396.81-25.39L396.81-25.39Q395.49-25.39 394.40-24.19L394.40-24.19L394.40-24.19Q393.31-23.00 393.31-21.52L393.31-21.52L393.31-21.52Q393.31-20.46 394.16-19.61L394.16-19.61L394.16-19.61Q395.38-18.44 398.51-16.54L398.51-16.54L398.51-16.54Q401.63-14.63 402.83-13.06L402.83-13.06L402.83-13.06Q404.02-11.50 404.02-9.35L404.02-9.35L404.02-9.35Q404.02-7.21 402.99-5.25L402.99-5.25L402.99-5.25Q401.95-3.29 400.10-1.91L400.10-1.91L400.10-1.91Q396.12 1.06 389.76 1.06L389.76 1.06L389.76 1.06Q386.32 1.06 383.67-0.74L383.67-0.74L383.67-0.74Q381.02-2.49 381.02-4.56L381.02-4.56L381.02-4.56Q381.02-6.63 382.53-7.84L382.53-7.84L382.53-7.84Q384.04-9.06 386.26-9.06L386.26-9.06L386.26-9.06Q388.49-9.06 389.87-8.21L389.87-8.21L389.87-8.21Q389.18-6.47 389.18-5.30L389.18-5.30L389.18-5.30Q389.18-1.80 392.15-1.80L392.15-1.80L392.15-1.80Q393.42-1.80 394.27-2.60L394.27-2.60L394.27-2.60Q395.12-3.39 395.12-4.77L395.12-4.77L395.12-4.77Q395.12-7.47 390.56-10.33L390.56-10.33L390.56-10.33Q386.85-12.77 386.00-13.73L386.00-13.73L386.00-13.73Q384.57-15.42 384.57-17.54L384.57-17.54L384.57-17.54Q384.57-19.66 385.57-21.68L385.57-21.68L385.57-21.68Q386.58-23.69 388.44-25.12L388.44-25.12L388.44-25.12Q392.31-28.09 399.04-28.09L399.04-28.09L399.04-28.09Q402.48-28.09 404.52-26.71L404.52-26.71L404.52-26.71Q406.56-25.33 406.56-23.00L406.56-23.00L406.56-23.00Q406.56-20.67 405.16-19.34L405.16-19.34L405.16-19.34Q403.75-18.02 401.21-18.02L401.21-18.02L401.21-18.02Q399.46-18.02 398.61-18.60Z" fill="#444"></path></g></g><style>text {
  font-size: 64px;
  font-family: Arial Black;
  dominant-baseline: central;
  text-anchor: middle;
}</style></svg>