<svg width="772.0700439453125px" height="120.8px" xmlns="http://www.w3.org/2000/svg" viewBox="-136.03502197265624 14.600000000000001 772.0700439453125 120.8" style="background: rgba(0, 0, 0, 0);" preserveAspectRatio="xMidYMid"><defs><filter id="editing-vr"><feFlood flood-color="#f00" flood-opacity="0.7" result="c1"></feFlood><feFlood flood-color="#00f" flood-opacity="0.7" result="c3"></feFlood><feComposite operator="in" in="c1" in2="SourceAlpha" result="text-c1"></feComposite><feComposite operator="in" in="c3" in2="SourceAlpha" result="text-c3"></feComposite><feOffset in="text-c1" dx="3" dy="-1" result="text1"></feOffset><feOffset in="text-c3" dx="-3" dy="1" result="text3"></feOffset><feBlend in="SourceGraphic" in2="text1" mode="multiply" result="text4"></feBlend><feBlend in="text4" in2="text3" mode="multiply"></feBlend></filter></defs><g filter="url(#editing-vr)"><g transform="translate(-25.039967745542526, 104.76000022888184)"><path d="M26.11-42.69L26.11-42.69L26.11-42.69Q41.79-42.69 41.79-31.62L41.79-31.62L41.79-31.62Q41.79-25.54 37.89-21.89L37.89-21.89L37.89-21.89Q34.05-18.24 27.33-18.24L27.33-18.24L27.33-18.24Q24.19-18.24 21.76-20.03L21.76-20.03L21.76-20.03Q20.61-20.80 19.84-21.82L19.84-21.82L19.84-21.82Q24.51-21.82 26.98-24.67L26.98-24.67L26.98-24.67Q29.44-27.52 29.44-33.09L29.44-33.09L29.44-33.09Q29.44-38.66 23.94-38.66L23.94-38.66L22.40-38.66L22.40-38.66Q22.02-38.66 21.70-38.59L21.70-38.59L14.34 0L0.45 0L8.32-41.92L8.32-41.92Q15.17-42.56 19.14-42.62L19.14-42.62L19.14-42.62Q23.10-42.69 26.11-42.69ZM62.14-17.98L62.14-17.98L62.14-17.98Q64.45-22.08 64.45-26.24L64.45-26.24L64.45-26.24Q64.45-28.99 62.46-28.99L62.46-28.99L62.46-28.99Q60.93-28.99 59.33-26.37L59.33-26.37L59.33-26.37Q57.66-23.74 57.15-20.35L57.15-20.35L53.82 0L40.58 1.28L47.10-32.64L57.66-33.92L56.51-27.46L56.51-27.46Q59.65-33.92 66.69-33.92L66.69-33.92L66.69-33.92Q70.40-33.92 72.42-32L72.42-32L72.42-32Q74.43-30.08 74.43-26.14L74.43-26.14L74.43-26.14Q74.43-22.21 71.84-19.71L71.84-19.71L71.84-19.71Q69.25-17.22 64.83-17.22L64.83-17.22L64.83-17.22Q62.91-17.22 62.14-17.98ZM90.82-3.52L90.82-3.52L90.82-3.52Q88.83 1.28 82.50 1.28L82.50 1.28L82.50 1.28Q79.23 1.28 77.18-0.96L77.18-0.96L77.18-0.96Q75.46-2.94 75.46-4.93L75.46-4.93L75.46-4.93Q75.46-10.11 77.82-20.22L77.82-20.22L80.19-32.64L93.18-33.92L89.28-13.70L89.28-13.70Q88.19-8.96 88.19-7.30L88.19-7.30L88.19-7.30Q88.19-3.65 90.82-3.52ZM81.34-41.54L81.34-41.54L81.34-41.54Q81.34-44.03 83.42-45.38L83.42-45.38L83.42-45.38Q85.50-46.72 88.51-46.72L88.51-46.72L88.51-46.72Q91.52-46.72 93.34-45.38L93.34-45.38L93.34-45.38Q95.17-44.03 95.17-41.54L95.17-41.54L95.17-41.54Q95.17-39.04 93.15-37.76L93.15-37.76L93.15-37.76Q91.14-36.48 88.13-36.48L88.13-36.48L88.13-36.48Q85.12-36.48 83.23-37.76L83.23-37.76L83.23-37.76Q81.34-39.04 81.34-41.54ZM127.68-26.62L127.68-26.62L127.68-26.62Q127.68-23.94 125.44-22.27L125.44-22.27L125.44-22.27Q123.20-20.61 119.55-20.61L119.55-20.61L119.55-20.61Q118.02-20.61 117.12-21.06L117.12-21.06L117.12-21.06Q117.82-22.72 118.05-24.80L118.05-24.80L118.05-24.80Q118.27-26.88 118.27-27.46L118.27-27.46L118.27-27.46Q118.27-30.14 116.42-30.14L116.42-30.14L116.42-30.14Q115.14-30.14 113.70-28.54L113.70-28.54L113.70-28.54Q112.26-26.94 111.04-24.45L111.04-24.45L111.04-24.45Q108.35-18.69 108.35-12.86L108.35-12.86L108.35-12.86Q108.35-9.66 109.57-8.22L109.57-8.22L109.57-8.22Q110.78-6.78 113.47-6.78L113.47-6.78L113.47-6.78Q117.18-6.78 120.13-9.86L120.13-9.86L120.13-9.86Q120.96-10.82 121.41-11.90L121.41-11.90L121.41-11.90Q123.84-10.62 123.84-7.10L123.84-7.10L123.84-7.10Q123.84-3.52 119.87-1.15L119.87-1.15L119.87-1.15Q115.78 1.28 109.25 1.28L109.25 1.28L109.25 1.28Q96.26 1.28 96.26-12.48L96.26-12.48L96.26-12.48Q96.26-22.53 101.95-28.29L101.95-28.29L101.95-28.29Q107.46-33.92 117.57-33.92L117.57-33.92L117.57-33.92Q127.68-33.92 127.68-26.62ZM155.33-10.82L155.33-10.82L155.33-10.82Q156.93-9.73 156.93-7.33L156.93-7.33L156.93-7.33Q156.93-4.93 155.71-3.39L155.71-3.39L155.71-3.39Q154.50-1.86 152.51-0.83L152.51-0.83L152.51-0.83Q148.42 1.28 144 1.28L144 1.28L144 1.28Q139.58 1.28 136.99 0.32L136.99 0.32L136.99 0.32Q134.40-0.64 132.67-2.43L132.67-2.43L132.67-2.43Q129.28-5.82 129.28-12.03L129.28-12.03L129.28-12.03Q129.28-21.70 134.53-27.58L134.53-27.58L134.53-27.58Q140.16-33.92 149.95-33.92L149.95-33.92L149.95-33.92Q156.03-33.92 159.04-31.36L159.04-31.36L159.04-31.36Q161.28-29.44 161.28-26.30L161.28-26.30L161.28-26.30Q161.28-15.04 141.82-15.04L141.82-15.04L141.82-15.04Q141.57-13.38 141.57-11.97L141.57-11.97L141.57-11.97Q141.57-9.02 142.88-7.90L142.88-7.90L142.88-7.90Q144.19-6.78 146.62-6.78L146.62-6.78L146.62-6.78Q149.06-6.78 151.65-7.90L151.65-7.90L151.65-7.90Q154.24-9.02 155.33-10.82ZM142.27-17.79L142.27-17.79L142.27-17.79Q146.82-17.79 149.44-20.61L149.44-20.61L149.44-20.61Q152.06-23.30 152.06-27.58L152.06-27.58L152.06-27.58Q152.06-29.06 151.52-29.86L151.52-29.86L151.52-29.86Q150.98-30.66 149.89-30.66L149.89-30.66L149.89-30.66Q148.80-30.66 147.87-30.24L147.87-30.24L147.87-30.24Q146.94-29.82 145.98-28.42L145.98-28.42L145.98-28.42Q143.62-25.22 142.27-17.79ZM162.30-3.78L162.30-3.78L162.30-3.78Q162.30-6.21 164.19-7.55L164.19-7.55L164.19-7.55Q166.08-8.90 168.77-8.90L168.77-8.90L168.77-8.90Q171.46-8.90 173.09-7.55L173.09-7.55L173.09-7.55Q174.72-6.21 174.72-3.78L174.72-3.78L174.72-3.78Q174.72-1.34 172.90-0.03L172.90-0.03L172.90-0.03Q171.07 1.28 168.38 1.28L168.38 1.28L168.38 1.28Q165.70 1.28 164-0.03L164-0.03L164-0.03Q162.30-1.34 162.30-3.78ZM167.55-28.80L167.55-28.80L167.55-28.80Q167.55-31.23 169.44-32.58L169.44-32.58L169.44-32.58Q171.33-33.92 174.02-33.92L174.02-33.92L174.02-33.92Q176.70-33.92 178.34-32.58L178.34-32.58L178.34-32.58Q179.97-31.23 179.97-28.80L179.97-28.80L179.97-28.80Q179.97-26.37 178.14-25.06L178.14-25.06L178.14-25.06Q176.32-23.74 173.63-23.74L173.63-23.74L173.63-23.74Q170.94-23.74 169.25-25.06L169.25-25.06L169.25-25.06Q167.55-26.37 167.55-28.80ZM222.59-9.86L222.59-9.86L222.59-9.86Q223.81-8.32 223.81-5.34L223.81-5.34L223.81-5.34Q223.81-2.37 221.54-0.54L221.54-0.54L221.54-0.54Q219.26 1.28 215.30 1.28L215.30 1.28L215.30 1.28Q212.99 1.28 209.41 0.77L209.41 0.77L209.41 0.77Q202.37-0.32 200.35-0.32L200.35-0.32L200.35-0.32Q198.34-0.32 197.50-0.22L197.50-0.22L197.50-0.22Q196.67-0.13 195.33 0L195.33 0L203.07-42.24L217.09-42.24L210.69-7.04L210.69-7.04Q211.52-6.91 212.29-6.91L212.29-6.91L213.89-6.91L213.89-6.91Q219.26-6.91 222.59-9.86ZM242.05 1.28L242.05 1.28L242.05 1.28Q227.97 1.28 227.97-11.97L227.97-11.97L227.97-11.97Q227.97-21.38 233.15-27.46L233.15-27.46L233.15-27.46Q238.66-33.92 248.19-33.92L248.19-33.92L248.19-33.92Q255.10-33.92 258.62-30.72L258.62-30.72L258.62-30.72Q262.14-27.52 262.14-20.80L262.14-20.80L262.14-20.80Q262.14-10.56 256.64-4.61L256.64-4.61L256.64-4.61Q251.26 1.28 242.05 1.28ZM243.71-26.56L243.71-26.56L243.71-26.56Q242.94-24.83 242.34-22.24L242.34-22.24L242.34-22.24Q241.73-19.65 240.96-15.55L240.96-15.55L240.96-15.55Q240.19-11.46 240.19-6.40L240.19-6.40L240.19-6.40Q240.19-4.74 240.74-3.65L240.74-3.65L240.74-3.65Q241.28-2.56 242.75-2.56L242.75-2.56L242.75-2.56Q244.22-2.56 245.15-3.26L245.15-3.26L245.15-3.26Q246.08-3.97 246.78-5.63L246.78-5.63L246.78-5.63Q248.06-8.58 249.09-14.05L249.09-14.05L249.09-14.05Q250.11-19.52 250.21-21.89L250.21-21.89L250.21-21.89Q250.30-24.26 250.30-26.02L250.30-26.02L250.30-26.02Q250.30-27.78 249.79-28.93L249.79-28.93L249.79-28.93Q249.28-30.08 247.84-30.08L247.84-30.08L247.84-30.08Q246.40-30.08 245.44-29.18L245.44-29.18L245.44-29.18Q244.48-28.29 243.71-26.56ZM313.66-10.69L313.66-10.69Q309.44-4.86 305.38-1.79L305.38-1.79L305.38-1.79Q301.31 1.28 297.12 1.28L297.12 1.28L297.12 1.28Q292.93 1.28 291.46 0.45L291.46 0.45L291.46-13.63L291.46-13.63Q287.81-3.90 281.28-0.13L281.28-0.13L281.28-0.13Q278.91 1.28 276.67 1.28L276.67 1.28L276.67 1.28Q272.38 1.28 270.53 0.45L270.53 0.45L270.53 0.45Q270.08-14.21 269.70-18.27L269.70-18.27L269.70-18.27Q269.31-22.34 268.99-24.83L268.99-24.83L268.99-24.83Q268.35-29.82 266.18-31.87L266.18-31.87L266.18-31.87Q268.93-33.92 272.77-33.92L272.77-33.92L272.77-33.92Q280.19-33.92 281.22-24.70L281.22-24.70L281.22-24.70Q281.47-22.53 281.47-20.22L281.47-20.22L281.47-20.22Q281.47-16.77 280.70-4.74L280.70-4.74L280.70-4.74Q282.24-5.44 283.87-7.97L283.87-7.97L283.87-7.97Q285.50-10.50 286.85-13.95L286.85-13.95L286.85-13.95Q289.86-21.95 289.86-28.86L289.86-28.86L289.86-28.86Q289.86-29.95 289.57-31.10L289.57-31.10L289.57-31.10Q289.28-32.26 288.96-32.58L288.96-32.58L288.96-32.58Q291.20-33.92 294.62-33.92L294.62-33.92L294.62-33.92Q298.05-33.92 299.68-31.58L299.68-31.58L299.68-31.58Q301.31-29.25 301.76-24.96L301.76-24.96L301.76-24.96Q302.27-19.52 302.27-16.26L302.27-16.26L302.27-16.26Q302.27-11.71 301.82-4.99L301.82-4.99L301.82-4.99Q305.02-7.30 307.65-14.85L307.65-14.85L307.65-14.85Q310.27-22.40 310.27-27.78L310.27-27.78L310.27-27.78Q310.27-30.14 309.89-31.55L309.89-31.55L309.89-31.55Q312-33.92 315.65-33.92L315.65-33.92L315.65-33.92Q317.89-33.92 319.52-32.70L319.52-32.70L319.52-32.70Q321.15-31.49 321.15-29.22L321.15-29.22L321.15-29.22Q321.15-26.94 320.48-24.51L320.48-24.51L320.48-24.51Q319.81-22.08 318.72-19.58L318.72-19.58L318.72-19.58Q316.61-14.59 313.66-10.69L313.66-10.69ZM337.09-6.40L337.09-6.40L337.09-6.40Q337.09-8.13 337.98-12.48L337.98-12.48L341.38-29.76L337.60-29.76L337.86-31.68L337.86-31.68Q345.54-33.98 352.96-39.62L352.96-39.62L356.03-39.62L354.50-32.64L359.49-32.64L358.91-29.76L353.98-29.76L350.72-12.48L350.72-12.48Q349.89-8.51 349.89-7.17L349.89-7.17L349.89-7.17Q349.89-4.10 352.58-3.46L352.58-3.46L352.58-3.46Q351.94-1.28 349.63 0L349.63 0L349.63 0Q347.33 1.28 344.06 1.28L344.06 1.28L344.06 1.28Q340.80 1.28 338.94-0.77L338.94-0.77L338.94-0.77Q337.09-2.82 337.09-6.40ZM372.86 1.28L372.86 1.28L372.86 1.28Q358.78 1.28 358.78-11.97L358.78-11.97L358.78-11.97Q358.78-21.38 363.97-27.46L363.97-27.46L363.97-27.46Q369.47-33.92 379.01-33.92L379.01-33.92L379.01-33.92Q385.92-33.92 389.44-30.72L389.44-30.72L389.44-30.72Q392.96-27.52 392.96-20.80L392.96-20.80L392.96-20.80Q392.96-10.56 387.46-4.61L387.46-4.61L387.46-4.61Q382.08 1.28 372.86 1.28ZM374.53-26.56L374.53-26.56L374.53-26.56Q373.76-24.83 373.15-22.24L373.15-22.24L373.15-22.24Q372.54-19.65 371.78-15.55L371.78-15.55L371.78-15.55Q371.01-11.46 371.01-6.40L371.01-6.40L371.01-6.40Q371.01-4.74 371.55-3.65L371.55-3.65L371.55-3.65Q372.10-2.56 373.57-2.56L373.57-2.56L373.57-2.56Q375.04-2.56 375.97-3.26L375.97-3.26L375.97-3.26Q376.90-3.97 377.60-5.63L377.60-5.63L377.60-5.63Q378.88-8.58 379.90-14.05L379.90-14.05L379.90-14.05Q380.93-19.52 381.02-21.89L381.02-21.89L381.02-21.89Q381.12-24.26 381.12-26.02L381.12-26.02L381.12-26.02Q381.12-27.78 380.61-28.93L380.61-28.93L380.61-28.93Q380.10-30.08 378.66-30.08L378.66-30.08L378.66-30.08Q377.22-30.08 376.26-29.18L376.26-29.18L376.26-29.18Q375.30-28.29 374.53-26.56ZM433.79-4.80L433.79-4.80L433.79-4.80Q433.79-9.28 435.58-18.24L435.58-18.24L426.11-18.24L422.59 0L409.22 0L417.34-42.24L430.85-42.24L427.14-23.36L436.61-23.36L440.13-42.24L453.63-42.24L453.63-42.24Q452.74-37.50 451.58-32.19L451.58-32.19L449.41-21.76L449.41-21.76Q446.98-9.60 446.98-4.29L446.98-4.29L446.98-4.29Q446.98-2.11 447.68-0.90L447.68-0.90L447.68-0.90Q444.48 1.28 440.74 1.28L440.74 1.28L440.74 1.28Q436.99 1.28 435.39-0.51L435.39-0.51L435.39-0.51Q433.79-2.30 433.79-4.80ZM470.53-3.52L470.53-3.52L470.53-3.52Q468.54 1.28 462.21 1.28L462.21 1.28L462.21 1.28Q458.94 1.28 456.90-0.96L456.90-0.96L456.90-0.96Q455.17-2.94 455.17-4.93L455.17-4.93L455.17-4.93Q455.17-10.11 457.54-20.22L457.54-20.22L459.90-32.64L472.90-33.92L468.99-13.70L468.99-13.70Q467.90-8.96 467.90-7.30L467.90-7.30L467.90-7.30Q467.90-3.65 470.53-3.52ZM461.06-41.54L461.06-41.54L461.06-41.54Q461.06-44.03 463.14-45.38L463.14-45.38L463.14-45.38Q465.22-46.72 468.22-46.72L468.22-46.72L468.22-46.72Q471.23-46.72 473.06-45.38L473.06-45.38L473.06-45.38Q474.88-44.03 474.88-41.54L474.88-41.54L474.88-41.54Q474.88-39.04 472.86-37.76L472.86-37.76L472.86-37.76Q470.85-36.48 467.84-36.48L467.84-36.48L467.84-36.48Q464.83-36.48 462.94-37.76L462.94-37.76L462.94-37.76Q461.06-39.04 461.06-41.54ZM480.51-26.75L480.51-26.75L480.51-26.75Q482.69-29.82 485.98-31.87L485.98-31.87L485.98-31.87Q489.28-33.92 493.31-33.92L493.31-33.92L493.31-33.92Q497.34-33.92 499.26-32.64L499.26-32.64L511.81-33.92L507.46-9.34L507.46-9.34Q505.22 3.20 500.48 8.13L500.48 8.13L500.48 8.13Q495.94 12.80 487.10 12.80L487.10 12.80L487.10 12.80Q480.38 12.80 476.54 10.69L476.54 10.69L476.54 10.69Q472.70 8.58 472.70 5.06L472.70 5.06L472.70 5.06Q472.70 2.43 474.69 0.93L474.69 0.93L474.69 0.93Q476.67-0.58 479.74-0.58L479.74-0.58L479.74-0.58Q482.43-0.58 484.48 0.64L484.48 0.64L484.48 0.64Q485.70 1.28 486.27 2.18L486.27 2.18L486.27 2.18Q484.80 3.46 484.80 5.57L484.80 5.57L484.80 5.57Q484.80 8.32 487.36 8.32L487.36 8.32L487.36 8.32Q491.65 8.32 494.08-1.79L494.08-1.79L494.08-1.79Q494.78-4.54 495.36-7.30L495.36-7.30L495.36-7.30Q492.48-3.78 485.95-3.78L485.95-3.78L485.95-3.78Q481.41-3.78 478.78-5.95L478.78-5.95L478.78-5.95Q476.16-8.13 476.16-13.25L476.16-13.25L476.16-13.25Q476.16-16.45 477.25-20.06L477.25-20.06L477.25-20.06Q478.34-23.68 480.51-26.75ZM488.83-13.06L488.83-13.06L488.83-13.06Q488.83-8.70 491.07-8.70L491.07-8.70L491.07-8.70Q492.61-8.70 494.08-10.37L494.08-10.37L494.08-10.37Q495.23-11.71 495.68-13.70L495.68-13.70L498.94-30.14L498.94-30.14Q498.62-30.21 498.30-30.34L498.30-30.34L498.30-30.34Q497.66-30.59 496.83-30.59L496.83-30.59L496.83-30.59Q492.93-30.59 490.62-24.19L490.62-24.19L490.62-24.19Q488.83-19.20 488.83-13.06ZM546.50-7.10L546.50-7.10L546.50-7.10Q546.50-4.29 549.38-3.46L549.38-3.46L549.38-3.46Q548.67-1.09 545.92 0.19L545.92 0.19L545.92 0.19Q543.62 1.28 541.09 1.28L541.09 1.28L541.09 1.28Q538.56 1.28 537.25 0.61L537.25 0.61L537.25 0.61Q535.94-0.06 535.23-1.15L535.23-1.15L535.23-1.15Q534.08-2.82 534.08-5.95L534.08-5.95L534.08-5.95Q534.08-7.81 535.10-12.93L535.10-12.93L536-17.79L536-17.79Q537.09-23.36 537.09-25.41L537.09-25.41L537.09-25.41Q537.09-28.99 535.10-28.99L535.10-28.99L535.10-28.99Q532.61-28.99 531.01-25.34L531.01-25.34L531.01-25.34Q530.37-23.94 529.92-21.82L529.92-21.82L525.57 0L512.70 1.28L521.73-44.80L534.59-46.08L534.08-43.52L534.08-43.52Q532.29-33.66 530.75-30.34L530.75-30.34L530.75-30.34Q534.34-33.92 540.93-33.92L540.93-33.92L540.93-33.92Q547.90-33.92 549.18-29.31L549.18-29.31L549.18-29.31Q549.63-27.84 549.63-26.56L549.63-26.56L549.63-26.56Q549.63-25.28 549.54-24.29L549.54-24.29L549.54-24.29Q549.44-23.30 549.12-21.50L549.12-21.50L548.29-16.90L546.82-9.66L546.82-9.66Q546.50-8.19 546.50-7.10Z" fill="#444"></path></g></g><style>text {
  font-size: 64px;
  font-family: Arial Black;
  dominant-baseline: central;
  text-anchor: middle;
}</style></svg>