<svg width="240.81494140625px" height="120.8px" xmlns="http://www.w3.org/2000/svg" viewBox="129.592529296875 14.600000000000001 240.81494140625 120.8" style="background: rgba(0, 0, 0, 0);" preserveAspectRatio="xMidYMid"><defs><filter id="editing-vr"><feFlood flood-color="#f00" flood-opacity="0.7" result="c1"></feFlood><feFlood flood-color="#00f" flood-opacity="0.7" result="c3"></feFlood><feComposite operator="in" in="c1" in2="SourceAlpha" result="text-c1"></feComposite><feComposite operator="in" in="c3" in2="SourceAlpha" result="text-c3"></feComposite><feOffset in="text-c1" dx="4" dy="-1" result="text1"></feOffset><feOffset in="text-c3" dx="-4" dy="1" result="text3"></feOffset><feBlend in="SourceGraphic" in2="text1" mode="multiply" result="text4"></feBlend><feBlend in="text4" in2="text3" mode="multiply"></feBlend></filter></defs><g filter="url(#editing-vr)"><g transform="translate(169.13502195477486, 99)"><path d="M26.11-42.69L26.11-42.69L26.11-42.69Q41.79-42.69 41.79-31.62L41.79-31.62L41.79-31.62Q41.79-25.54 37.89-21.89L37.89-21.89L37.89-21.89Q34.05-18.24 27.33-18.24L27.33-18.24L27.33-18.24Q24.19-18.24 21.76-20.03L21.76-20.03L21.76-20.03Q20.61-20.80 19.84-21.82L19.84-21.82L19.84-21.82Q24.51-21.82 26.98-24.67L26.98-24.67L26.98-24.67Q29.44-27.52 29.44-33.09L29.44-33.09L29.44-33.09Q29.44-38.66 23.94-38.66L23.94-38.66L22.40-38.66L22.40-38.66Q22.02-38.66 21.70-38.59L21.70-38.59L14.34 0L0.45 0L8.32-41.92L8.32-41.92Q15.17-42.56 19.14-42.62L19.14-42.62L19.14-42.62Q23.10-42.69 26.11-42.69ZM62.14-17.98L62.14-17.98L62.14-17.98Q64.45-22.08 64.45-26.24L64.45-26.24L64.45-26.24Q64.45-28.99 62.46-28.99L62.46-28.99L62.46-28.99Q60.93-28.99 59.33-26.37L59.33-26.37L59.33-26.37Q57.66-23.74 57.15-20.35L57.15-20.35L53.82 0L40.58 1.28L47.10-32.64L57.66-33.92L56.51-27.46L56.51-27.46Q59.65-33.92 66.69-33.92L66.69-33.92L66.69-33.92Q70.40-33.92 72.42-32L72.42-32L72.42-32Q74.43-30.08 74.43-26.14L74.43-26.14L74.43-26.14Q74.43-22.21 71.84-19.71L71.84-19.71L71.84-19.71Q69.25-17.22 64.83-17.22L64.83-17.22L64.83-17.22Q62.91-17.22 62.14-17.98ZM90.82-3.52L90.82-3.52L90.82-3.52Q88.83 1.28 82.50 1.28L82.50 1.28L82.50 1.28Q79.23 1.28 77.18-0.96L77.18-0.96L77.18-0.96Q75.46-2.94 75.46-4.93L75.46-4.93L75.46-4.93Q75.46-10.11 77.82-20.22L77.82-20.22L80.19-32.64L93.18-33.92L89.28-13.70L89.28-13.70Q88.19-8.96 88.19-7.30L88.19-7.30L88.19-7.30Q88.19-3.65 90.82-3.52ZM81.34-41.54L81.34-41.54L81.34-41.54Q81.34-44.03 83.42-45.38L83.42-45.38L83.42-45.38Q85.50-46.72 88.51-46.72L88.51-46.72L88.51-46.72Q91.52-46.72 93.34-45.38L93.34-45.38L93.34-45.38Q95.17-44.03 95.17-41.54L95.17-41.54L95.17-41.54Q95.17-39.04 93.15-37.76L93.15-37.76L93.15-37.76Q91.14-36.48 88.13-36.48L88.13-36.48L88.13-36.48Q85.12-36.48 83.23-37.76L83.23-37.76L83.23-37.76Q81.34-39.04 81.34-41.54ZM127.68-26.62L127.68-26.62L127.68-26.62Q127.68-23.94 125.44-22.27L125.44-22.27L125.44-22.27Q123.20-20.61 119.55-20.61L119.55-20.61L119.55-20.61Q118.02-20.61 117.12-21.06L117.12-21.06L117.12-21.06Q117.82-22.72 118.05-24.80L118.05-24.80L118.05-24.80Q118.27-26.88 118.27-27.46L118.27-27.46L118.27-27.46Q118.27-30.14 116.42-30.14L116.42-30.14L116.42-30.14Q115.14-30.14 113.70-28.54L113.70-28.54L113.70-28.54Q112.26-26.94 111.04-24.45L111.04-24.45L111.04-24.45Q108.35-18.69 108.35-12.86L108.35-12.86L108.35-12.86Q108.35-9.66 109.57-8.22L109.57-8.22L109.57-8.22Q110.78-6.78 113.47-6.78L113.47-6.78L113.47-6.78Q117.18-6.78 120.13-9.86L120.13-9.86L120.13-9.86Q120.96-10.82 121.41-11.90L121.41-11.90L121.41-11.90Q123.84-10.62 123.84-7.10L123.84-7.10L123.84-7.10Q123.84-3.52 119.87-1.15L119.87-1.15L119.87-1.15Q115.78 1.28 109.25 1.28L109.25 1.28L109.25 1.28Q96.26 1.28 96.26-12.48L96.26-12.48L96.26-12.48Q96.26-22.53 101.95-28.29L101.95-28.29L101.95-28.29Q107.46-33.92 117.57-33.92L117.57-33.92L117.57-33.92Q127.68-33.92 127.68-26.62ZM155.33-10.82L155.33-10.82L155.33-10.82Q156.93-9.73 156.93-7.33L156.93-7.33L156.93-7.33Q156.93-4.93 155.71-3.39L155.71-3.39L155.71-3.39Q154.50-1.86 152.51-0.83L152.51-0.83L152.51-0.83Q148.42 1.28 144 1.28L144 1.28L144 1.28Q139.58 1.28 136.99 0.32L136.99 0.32L136.99 0.32Q134.40-0.64 132.67-2.43L132.67-2.43L132.67-2.43Q129.28-5.82 129.28-12.03L129.28-12.03L129.28-12.03Q129.28-21.70 134.53-27.58L134.53-27.58L134.53-27.58Q140.16-33.92 149.95-33.92L149.95-33.92L149.95-33.92Q156.03-33.92 159.04-31.36L159.04-31.36L159.04-31.36Q161.28-29.44 161.28-26.30L161.28-26.30L161.28-26.30Q161.28-15.04 141.82-15.04L141.82-15.04L141.82-15.04Q141.57-13.38 141.57-11.97L141.57-11.97L141.57-11.97Q141.57-9.02 142.88-7.90L142.88-7.90L142.88-7.90Q144.19-6.78 146.62-6.78L146.62-6.78L146.62-6.78Q149.06-6.78 151.65-7.90L151.65-7.90L151.65-7.90Q154.24-9.02 155.33-10.82ZM142.27-17.79L142.27-17.79L142.27-17.79Q146.82-17.79 149.44-20.61L149.44-20.61L149.44-20.61Q152.06-23.30 152.06-27.58L152.06-27.58L152.06-27.58Q152.06-29.06 151.52-29.86L151.52-29.86L151.52-29.86Q150.98-30.66 149.89-30.66L149.89-30.66L149.89-30.66Q148.80-30.66 147.87-30.24L147.87-30.24L147.87-30.24Q146.94-29.82 145.98-28.42L145.98-28.42L145.98-28.42Q143.62-25.22 142.27-17.79Z" fill="#444"></path></g></g><style>text {
  font-size: 64px;
  font-family: Arial Black;
  dominant-baseline: central;
  text-anchor: middle;
}</style></svg>