<svg width="772.3574462890625px" height="120.8px" xmlns="http://www.w3.org/2000/svg" viewBox="-136.17872314453126 14.600000000000001 772.3574462890625 120.8" style="background: rgba(0, 0, 0, 0);" preserveAspectRatio="xMidYMid"><defs><filter id="editing-vr"><feFlood flood-color="#f00" flood-opacity="0.7" result="c1"></feFlood><feFlood flood-color="#00f" flood-opacity="0.7" result="c3"></feFlood><feComposite operator="in" in="c1" in2="SourceAlpha" result="text-c1"></feComposite><feComposite operator="in" in="c3" in2="SourceAlpha" result="text-c3"></feComposite><feOffset in="text-c1" dx="3" dy="-1" result="text1"></feOffset><feOffset in="text-c3" dx="-3" dy="1" result="text3"></feOffset><feBlend in="SourceGraphic" in2="text1" mode="multiply" result="text4"></feBlend><feBlend in="text4" in2="text3" mode="multiply"></feBlend></filter></defs><g filter="url(#editing-vr)"><g transform="translate(-26.5343219935894, 104.76000022888184)"><path d="M26.11-42.69L26.11-42.69L26.11-42.69Q41.79-42.69 41.79-31.62L41.79-31.62L41.79-31.62Q41.79-25.54 37.89-21.89L37.89-21.89L37.89-21.89Q34.05-18.24 27.33-18.24L27.33-18.24L27.33-18.24Q24.19-18.24 21.76-20.03L21.76-20.03L21.76-20.03Q20.61-20.80 19.84-21.82L19.84-21.82L19.84-21.82Q24.51-21.82 26.98-24.67L26.98-24.67L26.98-24.67Q29.44-27.52 29.44-33.09L29.44-33.09L29.44-33.09Q29.44-38.66 23.94-38.66L23.94-38.66L22.40-38.66L22.40-38.66Q22.02-38.66 21.70-38.59L21.70-38.59L14.34 0L0.45 0L8.32-41.92L8.32-41.92Q15.17-42.56 19.14-42.62L19.14-42.62L19.14-42.62Q23.10-42.69 26.11-42.69ZM62.14-17.98L62.14-17.98L62.14-17.98Q64.45-22.08 64.45-26.24L64.45-26.24L64.45-26.24Q64.45-28.99 62.46-28.99L62.46-28.99L62.46-28.99Q60.93-28.99 59.33-26.37L59.33-26.37L59.33-26.37Q57.66-23.74 57.15-20.35L57.15-20.35L53.82 0L40.58 1.28L47.10-32.64L57.66-33.92L56.51-27.46L56.51-27.46Q59.65-33.92 66.69-33.92L66.69-33.92L66.69-33.92Q70.40-33.92 72.42-32L72.42-32L72.42-32Q74.43-30.08 74.43-26.14L74.43-26.14L74.43-26.14Q74.43-22.21 71.84-19.71L71.84-19.71L71.84-19.71Q69.25-17.22 64.83-17.22L64.83-17.22L64.83-17.22Q62.91-17.22 62.14-17.98ZM90.82-3.52L90.82-3.52L90.82-3.52Q88.83 1.28 82.50 1.28L82.50 1.28L82.50 1.28Q79.23 1.28 77.18-0.96L77.18-0.96L77.18-0.96Q75.46-2.94 75.46-4.93L75.46-4.93L75.46-4.93Q75.46-10.11 77.82-20.22L77.82-20.22L80.19-32.64L93.18-33.92L89.28-13.70L89.28-13.70Q88.19-8.96 88.19-7.30L88.19-7.30L88.19-7.30Q88.19-3.65 90.82-3.52ZM81.34-41.54L81.34-41.54L81.34-41.54Q81.34-44.03 83.42-45.38L83.42-45.38L83.42-45.38Q85.50-46.72 88.51-46.72L88.51-46.72L88.51-46.72Q91.52-46.72 93.34-45.38L93.34-45.38L93.34-45.38Q95.17-44.03 95.17-41.54L95.17-41.54L95.17-41.54Q95.17-39.04 93.15-37.76L93.15-37.76L93.15-37.76Q91.14-36.48 88.13-36.48L88.13-36.48L88.13-36.48Q85.12-36.48 83.23-37.76L83.23-37.76L83.23-37.76Q81.34-39.04 81.34-41.54ZM127.68-26.62L127.68-26.62L127.68-26.62Q127.68-23.94 125.44-22.27L125.44-22.27L125.44-22.27Q123.20-20.61 119.55-20.61L119.55-20.61L119.55-20.61Q118.02-20.61 117.12-21.06L117.12-21.06L117.12-21.06Q117.82-22.72 118.05-24.80L118.05-24.80L118.05-24.80Q118.27-26.88 118.27-27.46L118.27-27.46L118.27-27.46Q118.27-30.14 116.42-30.14L116.42-30.14L116.42-30.14Q115.14-30.14 113.70-28.54L113.70-28.54L113.70-28.54Q112.26-26.94 111.04-24.45L111.04-24.45L111.04-24.45Q108.35-18.69 108.35-12.86L108.35-12.86L108.35-12.86Q108.35-9.66 109.57-8.22L109.57-8.22L109.57-8.22Q110.78-6.78 113.47-6.78L113.47-6.78L113.47-6.78Q117.18-6.78 120.13-9.86L120.13-9.86L120.13-9.86Q120.96-10.82 121.41-11.90L121.41-11.90L121.41-11.90Q123.84-10.62 123.84-7.10L123.84-7.10L123.84-7.10Q123.84-3.52 119.87-1.15L119.87-1.15L119.87-1.15Q115.78 1.28 109.25 1.28L109.25 1.28L109.25 1.28Q96.26 1.28 96.26-12.48L96.26-12.48L96.26-12.48Q96.26-22.53 101.95-28.29L101.95-28.29L101.95-28.29Q107.46-33.92 117.57-33.92L117.57-33.92L117.57-33.92Q127.68-33.92 127.68-26.62ZM155.33-10.82L155.33-10.82L155.33-10.82Q156.93-9.73 156.93-7.33L156.93-7.33L156.93-7.33Q156.93-4.93 155.71-3.39L155.71-3.39L155.71-3.39Q154.50-1.86 152.51-0.83L152.51-0.83L152.51-0.83Q148.42 1.28 144 1.28L144 1.28L144 1.28Q139.58 1.28 136.99 0.32L136.99 0.32L136.99 0.32Q134.40-0.64 132.67-2.43L132.67-2.43L132.67-2.43Q129.28-5.82 129.28-12.03L129.28-12.03L129.28-12.03Q129.28-21.70 134.53-27.58L134.53-27.58L134.53-27.58Q140.16-33.92 149.95-33.92L149.95-33.92L149.95-33.92Q156.03-33.92 159.04-31.36L159.04-31.36L159.04-31.36Q161.28-29.44 161.28-26.30L161.28-26.30L161.28-26.30Q161.28-15.04 141.82-15.04L141.82-15.04L141.82-15.04Q141.57-13.38 141.57-11.97L141.57-11.97L141.57-11.97Q141.57-9.02 142.88-7.90L142.88-7.90L142.88-7.90Q144.19-6.78 146.62-6.78L146.62-6.78L146.62-6.78Q149.06-6.78 151.65-7.90L151.65-7.90L151.65-7.90Q154.24-9.02 155.33-10.82ZM142.27-17.79L142.27-17.79L142.27-17.79Q146.82-17.79 149.44-20.61L149.44-20.61L149.44-20.61Q152.06-23.30 152.06-27.58L152.06-27.58L152.06-27.58Q152.06-29.06 151.52-29.86L151.52-29.86L151.52-29.86Q150.98-30.66 149.89-30.66L149.89-30.66L149.89-30.66Q148.80-30.66 147.87-30.24L147.87-30.24L147.87-30.24Q146.94-29.82 145.98-28.42L145.98-28.42L145.98-28.42Q143.62-25.22 142.27-17.79ZM162.30-3.78L162.30-3.78L162.30-3.78Q162.30-6.21 164.19-7.55L164.19-7.55L164.19-7.55Q166.08-8.90 168.77-8.90L168.77-8.90L168.77-8.90Q171.46-8.90 173.09-7.55L173.09-7.55L173.09-7.55Q174.72-6.21 174.72-3.78L174.72-3.78L174.72-3.78Q174.72-1.34 172.90-0.03L172.90-0.03L172.90-0.03Q171.07 1.28 168.38 1.28L168.38 1.28L168.38 1.28Q165.70 1.28 164-0.03L164-0.03L164-0.03Q162.30-1.34 162.30-3.78ZM167.55-28.80L167.55-28.80L167.55-28.80Q167.55-31.23 169.44-32.58L169.44-32.58L169.44-32.58Q171.33-33.92 174.02-33.92L174.02-33.92L174.02-33.92Q176.70-33.92 178.34-32.58L178.34-32.58L178.34-32.58Q179.97-31.23 179.97-28.80L179.97-28.80L179.97-28.80Q179.97-26.37 178.14-25.06L178.14-25.06L178.14-25.06Q176.32-23.74 173.63-23.74L173.63-23.74L173.63-23.74Q170.94-23.74 169.25-25.06L169.25-25.06L169.25-25.06Q167.55-26.37 167.55-28.80ZM219.71-4.80L219.71-4.80L219.71-4.80Q219.71-9.28 221.50-18.24L221.50-18.24L212.03-18.24L208.51 0L195.14 0L203.26-42.24L216.77-42.24L213.06-23.36L222.53-23.36L226.05-42.24L239.55-42.24L239.55-42.24Q238.66-37.50 237.50-32.19L237.50-32.19L235.33-21.76L235.33-21.76Q232.90-9.60 232.90-4.29L232.90-4.29L232.90-4.29Q232.90-2.11 233.60-0.90L233.60-0.90L233.60-0.90Q230.40 1.28 226.66 1.28L226.66 1.28L226.66 1.28Q222.91 1.28 221.31-0.51L221.31-0.51L221.31-0.51Q219.71-2.30 219.71-4.80ZM256.45-3.52L256.45-3.52L256.45-3.52Q254.46 1.28 248.13 1.28L248.13 1.28L248.13 1.28Q244.86 1.28 242.82-0.96L242.82-0.96L242.82-0.96Q241.09-2.94 241.09-4.93L241.09-4.93L241.09-4.93Q241.09-10.11 243.46-20.22L243.46-20.22L245.82-32.64L258.82-33.92L254.91-13.70L254.91-13.70Q253.82-8.96 253.82-7.30L253.82-7.30L253.82-7.30Q253.82-3.65 256.45-3.52ZM246.98-41.54L246.98-41.54L246.98-41.54Q246.98-44.03 249.06-45.38L249.06-45.38L249.06-45.38Q251.14-46.72 254.14-46.72L254.14-46.72L254.14-46.72Q257.15-46.72 258.98-45.38L258.98-45.38L258.98-45.38Q260.80-44.03 260.80-41.54L260.80-41.54L260.80-41.54Q260.80-39.04 258.78-37.76L258.78-37.76L258.78-37.76Q256.77-36.48 253.76-36.48L253.76-36.48L253.76-36.48Q250.75-36.48 248.86-37.76L248.86-37.76L248.86-37.76Q246.98-39.04 246.98-41.54ZM266.43-26.75L266.43-26.75L266.43-26.75Q268.61-29.82 271.90-31.87L271.90-31.87L271.90-31.87Q275.20-33.92 279.23-33.92L279.23-33.92L279.23-33.92Q283.26-33.92 285.18-32.64L285.18-32.64L297.73-33.92L293.38-9.34L293.38-9.34Q291.14 3.20 286.40 8.13L286.40 8.13L286.40 8.13Q281.86 12.80 273.02 12.80L273.02 12.80L273.02 12.80Q266.30 12.80 262.46 10.69L262.46 10.69L262.46 10.69Q258.62 8.58 258.62 5.06L258.62 5.06L258.62 5.06Q258.62 2.43 260.61 0.93L260.61 0.93L260.61 0.93Q262.59-0.58 265.66-0.58L265.66-0.58L265.66-0.58Q268.35-0.58 270.40 0.64L270.40 0.64L270.40 0.64Q271.62 1.28 272.19 2.18L272.19 2.18L272.19 2.18Q270.72 3.46 270.72 5.57L270.72 5.57L270.72 5.57Q270.72 8.32 273.28 8.32L273.28 8.32L273.28 8.32Q277.57 8.32 280.00-1.79L280.00-1.79L280.00-1.79Q280.70-4.54 281.28-7.30L281.28-7.30L281.28-7.30Q278.40-3.78 271.87-3.78L271.87-3.78L271.87-3.78Q267.33-3.78 264.70-5.95L264.70-5.95L264.70-5.95Q262.08-8.13 262.08-13.25L262.08-13.25L262.08-13.25Q262.08-16.45 263.17-20.06L263.17-20.06L263.17-20.06Q264.26-23.68 266.43-26.75ZM274.75-13.06L274.75-13.06L274.75-13.06Q274.75-8.70 276.99-8.70L276.99-8.70L276.99-8.70Q278.53-8.70 280.00-10.37L280.00-10.37L280.00-10.37Q281.15-11.71 281.60-13.70L281.60-13.70L284.86-30.14L284.86-30.14Q284.54-30.21 284.22-30.34L284.22-30.34L284.22-30.34Q283.58-30.59 282.75-30.59L282.75-30.59L282.75-30.59Q278.85-30.59 276.54-24.19L276.54-24.19L276.54-24.19Q274.75-19.20 274.75-13.06ZM332.42-7.10L332.42-7.10L332.42-7.10Q332.42-4.29 335.30-3.46L335.30-3.46L335.30-3.46Q334.59-1.09 331.84 0.19L331.84 0.19L331.84 0.19Q329.54 1.28 327.01 1.28L327.01 1.28L327.01 1.28Q324.48 1.28 323.17 0.61L323.17 0.61L323.17 0.61Q321.86-0.06 321.15-1.15L321.15-1.15L321.15-1.15Q320.00-2.82 320.00-5.95L320.00-5.95L320.00-5.95Q320.00-7.81 321.02-12.93L321.02-12.93L321.92-17.79L321.92-17.79Q323.01-23.36 323.01-25.41L323.01-25.41L323.01-25.41Q323.01-28.99 321.02-28.99L321.02-28.99L321.02-28.99Q318.53-28.99 316.93-25.34L316.93-25.34L316.93-25.34Q316.29-23.94 315.84-21.82L315.84-21.82L311.49 0L298.62 1.28L307.65-44.80L320.51-46.08L320.00-43.52L320.00-43.52Q318.21-33.66 316.67-30.34L316.67-30.34L316.67-30.34Q320.26-33.92 326.85-33.92L326.85-33.92L326.85-33.92Q333.82-33.92 335.10-29.31L335.10-29.31L335.10-29.31Q335.55-27.84 335.55-26.56L335.55-26.56L335.55-26.56Q335.55-25.28 335.46-24.29L335.46-24.29L335.46-24.29Q335.36-23.30 335.04-21.50L335.04-21.50L334.21-16.90L332.74-9.66L332.74-9.66Q332.42-8.19 332.42-7.10ZM354.69-6.40L354.69-6.40L354.69-6.40Q354.69-8.13 355.58-12.48L355.58-12.48L358.98-29.76L355.20-29.76L355.46-31.68L355.46-31.68Q363.14-33.98 370.56-39.62L370.56-39.62L373.63-39.62L372.10-32.64L377.09-32.64L376.51-29.76L371.58-29.76L368.32-12.48L368.32-12.48Q367.49-8.51 367.49-7.17L367.49-7.17L367.49-7.17Q367.49-4.10 370.18-3.46L370.18-3.46L370.18-3.46Q369.54-1.28 367.23 0L367.23 0L367.23 0Q364.93 1.28 361.66 1.28L361.66 1.28L361.66 1.28Q358.40 1.28 356.54-0.77L356.54-0.77L356.54-0.77Q354.69-2.82 354.69-6.40ZM390.46 1.28L390.46 1.28L390.46 1.28Q376.38 1.28 376.38-11.97L376.38-11.97L376.38-11.97Q376.38-21.38 381.57-27.46L381.57-27.46L381.57-27.46Q387.07-33.92 396.61-33.92L396.61-33.92L396.61-33.92Q403.52-33.92 407.04-30.72L407.04-30.72L407.04-30.72Q410.56-27.52 410.56-20.80L410.56-20.80L410.56-20.80Q410.56-10.56 405.06-4.61L405.06-4.61L405.06-4.61Q399.68 1.28 390.46 1.28ZM392.13-26.56L392.13-26.56L392.13-26.56Q391.36-24.83 390.75-22.24L390.75-22.24L390.75-22.24Q390.14-19.65 389.38-15.55L389.38-15.55L389.38-15.55Q388.61-11.46 388.61-6.40L388.61-6.40L388.61-6.40Q388.61-4.74 389.15-3.65L389.15-3.65L389.15-3.65Q389.70-2.56 391.17-2.56L391.17-2.56L391.17-2.56Q392.64-2.56 393.57-3.26L393.57-3.26L393.57-3.26Q394.50-3.97 395.20-5.63L395.20-5.63L395.20-5.63Q396.48-8.58 397.50-14.05L397.50-14.05L397.50-14.05Q398.53-19.52 398.62-21.89L398.62-21.89L398.62-21.89Q398.72-24.26 398.72-26.02L398.72-26.02L398.72-26.02Q398.72-27.78 398.21-28.93L398.21-28.93L398.21-28.93Q397.70-30.08 396.26-30.08L396.26-30.08L396.26-30.08Q394.82-30.08 393.86-29.18L393.86-29.18L393.86-29.18Q392.90-28.29 392.13-26.56ZM454.27-9.86L454.27-9.86L454.27-9.86Q455.49-8.32 455.49-5.34L455.49-5.34L455.49-5.34Q455.49-2.37 453.22-0.54L453.22-0.54L453.22-0.54Q450.94 1.28 446.98 1.28L446.98 1.28L446.98 1.28Q444.67 1.28 441.09 0.77L441.09 0.77L441.09 0.77Q434.05-0.32 432.03-0.32L432.03-0.32L432.03-0.32Q430.02-0.32 429.18-0.22L429.18-0.22L429.18-0.22Q428.35-0.13 427.01 0L427.01 0L434.75-42.24L448.77-42.24L442.37-7.04L442.37-7.04Q443.20-6.91 443.97-6.91L443.97-6.91L445.57-6.91L445.57-6.91Q450.94-6.91 454.27-9.86ZM473.73 1.28L473.73 1.28L473.73 1.28Q459.65 1.28 459.65-11.97L459.65-11.97L459.65-11.97Q459.65-21.38 464.83-27.46L464.83-27.46L464.83-27.46Q470.34-33.92 479.87-33.92L479.87-33.92L479.87-33.92Q486.78-33.92 490.30-30.72L490.30-30.72L490.30-30.72Q493.82-27.52 493.82-20.80L493.82-20.80L493.82-20.80Q493.82-10.56 488.32-4.61L488.32-4.61L488.32-4.61Q482.94 1.28 473.73 1.28ZM475.39-26.56L475.39-26.56L475.39-26.56Q474.62-24.83 474.02-22.24L474.02-22.24L474.02-22.24Q473.41-19.65 472.64-15.55L472.64-15.55L472.64-15.55Q471.87-11.46 471.87-6.40L471.87-6.40L471.87-6.40Q471.87-4.74 472.42-3.65L472.42-3.65L472.42-3.65Q472.96-2.56 474.43-2.56L474.43-2.56L474.43-2.56Q475.90-2.56 476.83-3.26L476.83-3.26L476.83-3.26Q477.76-3.97 478.46-5.63L478.46-5.63L478.46-5.63Q479.74-8.58 480.77-14.05L480.77-14.05L480.77-14.05Q481.79-19.52 481.89-21.89L481.89-21.89L481.89-21.89Q481.98-24.26 481.98-26.02L481.98-26.02L481.98-26.02Q481.98-27.78 481.47-28.93L481.47-28.93L481.47-28.93Q480.96-30.08 479.52-30.08L479.52-30.08L479.52-30.08Q478.08-30.08 477.12-29.18L477.12-29.18L477.12-29.18Q476.16-28.29 475.39-26.56ZM545.34-10.69L545.34-10.69Q541.12-4.86 537.06-1.79L537.06-1.79L537.06-1.79Q532.99 1.28 528.80 1.28L528.80 1.28L528.80 1.28Q524.61 1.28 523.14 0.45L523.14 0.45L523.14-13.63L523.14-13.63Q519.49-3.90 512.96-0.13L512.96-0.13L512.96-0.13Q510.59 1.28 508.35 1.28L508.35 1.28L508.35 1.28Q504.06 1.28 502.21 0.45L502.21 0.45L502.21 0.45Q501.76-14.21 501.38-18.27L501.38-18.27L501.38-18.27Q500.99-22.34 500.67-24.83L500.67-24.83L500.67-24.83Q500.03-29.82 497.86-31.87L497.86-31.87L497.86-31.87Q500.61-33.92 504.45-33.92L504.45-33.92L504.45-33.92Q511.87-33.92 512.90-24.70L512.90-24.70L512.90-24.70Q513.15-22.53 513.15-20.22L513.15-20.22L513.15-20.22Q513.15-16.77 512.38-4.74L512.38-4.74L512.38-4.74Q513.92-5.44 515.55-7.97L515.55-7.97L515.55-7.97Q517.18-10.50 518.53-13.95L518.53-13.95L518.53-13.95Q521.54-21.95 521.54-28.86L521.54-28.86L521.54-28.86Q521.54-29.95 521.25-31.10L521.25-31.10L521.25-31.10Q520.96-32.26 520.64-32.58L520.64-32.58L520.64-32.58Q522.88-33.92 526.30-33.92L526.30-33.92L526.30-33.92Q529.73-33.92 531.36-31.58L531.36-31.58L531.36-31.58Q532.99-29.25 533.44-24.96L533.44-24.96L533.44-24.96Q533.95-19.52 533.95-16.26L533.95-16.26L533.95-16.26Q533.95-11.71 533.50-4.99L533.50-4.99L533.50-4.99Q536.70-7.30 539.33-14.85L539.33-14.85L539.33-14.85Q541.95-22.40 541.95-27.78L541.95-27.78L541.95-27.78Q541.95-30.14 541.57-31.55L541.57-31.55L541.57-31.55Q543.68-33.92 547.33-33.92L547.33-33.92L547.33-33.92Q549.57-33.92 551.20-32.70L551.20-32.70L551.20-32.70Q552.83-31.49 552.83-29.22L552.83-29.22L552.83-29.22Q552.83-26.94 552.16-24.51L552.16-24.51L552.16-24.51Q551.49-22.08 550.40-19.58L550.40-19.58L550.40-19.58Q548.29-14.59 545.34-10.69L545.34-10.69Z" fill="#444"></path></g></g><style>text {
  font-size: 64px;
  font-family: Arial Black;
  dominant-baseline: central;
  text-anchor: middle;
}</style></svg>