<svg width="511.0625366210937px" height="121.39999999999999px" xmlns="http://www.w3.org/2000/svg" viewBox="-5.531268310546864 14.300000000000004 511.0625366210937 121.39999999999999" style="background: rgb(216, 130, 136);" preserveAspectRatio="xMidYMid"><defs>
  <filter id="editing-scratch" x="-100%" y="-100%" width="300%" height="300%">
    <!-- COLOR -->
    <feFlood flood-color="#ffe691" flood-opacity="0.75" result="COLOR-blu"></feFlood>
    <feFlood flood-color="#95d5ee" flood-opacity="0.4" result="COLOR-red"></feFlood>
    <!-- COLOR END -->

    <!-- Texture -->
    <feTurbulence baseFrequency=".05" type="fractalNoise" numOctaves="3" seed="0" result="Texture_10"></feTurbulence>
    <feColorMatrix type="matrix" values="0 0 0 0 0,
    0 0 0 0 0,
    0 0 0 0 0,
    0 0 0 -2.1 1.1" in="Texture_10" result="Texture_20"></feColorMatrix>

    <feColorMatrix result="Texture_30" type="matrix" values="0 0 0 0 0,
    0 0 0 0 0,
    0 0 0 0 0,
    0 0 0 -1.7 1.8" in="Texture_10"></feColorMatrix>
    <!-- Texture -->

    <!-- FILL -->
    <feOffset dx="-3" dy="4" in="SourceAlpha" result="FILL_10"></feOffset>
    <feDisplacementMap scale="17" in="FILL_10" in2="Texture_10" result="FILL_20"></feDisplacementMap>
    <feComposite operator="in" in="Texture_30" in2="FILL_20" result="FILL_40"></feComposite>
    <feComposite operator="in" in="COLOR-blu" in2="FILL_40" result="FILL_50"></feComposite>
    <!-- FILL END-->

    <!-- OUTLINE -->
    <feMorphology operator="dilate" radius="3" in="SourceGraphic" result="OUTLINE_10"></feMorphology>
    <feComposite operator="out" in="OUTLINE_10" in2="SourceGraphic" result="OUTLINE_20"></feComposite>
    <feDisplacementMap scale="7" in="OUTLINE_20" in2="Texture_10" result="OUTLINE_30"></feDisplacementMap>
    <feComposite operator="arithmetic" k2="-1" k3="1" in="Texture_20" in2="OUTLINE_30" result="OUTLINE_40"></feComposite>
    <!-- OUTLINE END-->

    <!-- BEVEL OUTLINE -->
    <feConvolveMatrix order="8,8" divisor="1" kernelMatrix="1 0 0 0 0 0 0 0 0 1 0 0 0 0 0 0 0 0 1 0 0 0 0 0 0 0 0 1 0 0 0 0 0 0 0 0 1 0 0 0 0 0 0 0 0 1 0 0 0 0 0 0 0 0 1 0 0 0 0 0 0 0 0 1 " in="SourceGraphic" result="BEVEL_10"></feConvolveMatrix>
    <feMorphology operator="dilate" radius="2" in="BEVEL_10" result="BEVEL_20"></feMorphology>
    <feComposite operator="out" in="BEVEL_20" in2="BEVEL_10" result="BEVEL_30"></feComposite>
    <feDisplacementMap scale="7" in="BEVEL_30" in2="Texture_10" result="BEVEL_40"></feDisplacementMap>
    <feComposite operator="arithmetic" k2="-1" k3="1" in="Texture_20" in2="BEVEL_40" result="BEVEL_50"></feComposite>
    <feOffset dx="-7" dy="-7" in="BEVEL_50" result="BEVEL_60"></feOffset>
    <feComposite operator="out" in="BEVEL_60" in2="OUTLINE_10" result="BEVEL_70"></feComposite>
    <!-- BEVEL OUTLINE END -->

    <!-- BEVEL FILL -->
    <feOffset dx="-9" dy="-9" in="BEVEL_10" result="BEVEL-FILL_10"></feOffset>
    <feComposite operator="out" in="BEVEL-FILL_10" in2="OUTLINE_10" result="BEVEL-FILL_20"></feComposite>
    <feDisplacementMap scale="17" in="BEVEL-FILL_20" in2="Texture_10" result="BEVEL-FILL_30"></feDisplacementMap>
    <feComposite operator="in" in="COLOR-red" in2="BEVEL-FILL_30" result="BEVEL-FILL_50"></feComposite> <!-- -->
    <!-- BEVEL FILL END-->

    <feMerge result="merge2">
     <feMergeNode in="BEVEL-FILL_50"></feMergeNode>
     <feMergeNode in="BEVEL_70"></feMergeNode>
     <feMergeNode in="FILL_50"></feMergeNode>
      <feMergeNode in="OUTLINE_40"></feMergeNode>
    </feMerge>
  </filter>
</defs>
<g filter="url(#editing-scratch)"><g transform="translate(69.70998108386993, 98.68000030517578)"><path d="M26.05-29.57L26.05-29.57L26.05-29.57Q27.01-31.49 27.01-33.28L27.01-33.28L27.01-33.28Q27.01-35.07 26.82-36.06L26.82-36.06L26.82-36.06Q26.62-37.06 26.18-37.82L26.18-37.82L26.18-37.82Q25.22-39.49 23.30-39.49L23.30-39.49L23.30-39.49Q20.93-39.49 19.01-37.76L19.01-37.76L19.01-37.76Q16.96-35.97 16.96-33.15L16.96-33.15L16.96-33.15Q16.96-31.36 18.21-29.98L18.21-29.98L18.21-29.98Q19.46-28.61 21.38-27.33L21.38-27.33L21.38-27.33Q23.30-26.05 25.47-24.77L25.47-24.77L25.47-24.77Q27.65-23.49 29.57-21.95L29.57-21.95L29.57-21.95Q33.98-18.43 33.98-13.70L33.98-13.70L33.98-13.70Q33.98-10.50 32.29-7.78L32.29-7.78L32.29-7.78Q30.59-5.06 27.78-3.07L27.78-3.07L27.78-3.07Q21.63 1.28 13.50 1.28L13.50 1.28L13.50 1.28Q6.91 1.28 3.52-0.86L3.52-0.86L3.52-0.86Q0.13-3.01 0.13-6.27L0.13-6.27L0.13-6.27Q0.13-12.10 4.67-13.57L4.67-13.57L4.67-13.57Q5.95-14.02 7.90-14.02L7.90-14.02L7.90-14.02Q9.86-14.02 12.10-13.18L12.10-13.18L12.10-13.18Q11.07-10.56 11.07-8.19L11.07-8.19L11.07-8.19Q11.07-3.07 14.72-3.07L14.72-3.07L14.72-3.07Q17.09-3.07 19.04-4.80L19.04-4.80L19.04-4.80Q20.99-6.53 20.99-8.48L20.99-8.48L20.99-8.48Q20.99-10.43 19.74-11.84L19.74-11.84L19.74-11.84Q18.50-13.25 16.64-14.37L16.64-14.37L16.64-14.37Q14.78-15.49 12.64-16.58L12.64-16.58L12.64-16.58Q10.50-17.66 8.64-19.20L8.64-19.20L8.64-19.20Q4.29-22.72 4.29-28.35L4.29-28.35L4.29-28.35Q4.29-32 6.08-34.85L6.08-34.85L6.08-34.85Q7.87-37.70 10.75-39.62L10.75-39.62L10.75-39.62Q16.51-43.52 23.58-43.52L23.58-43.52L23.58-43.52Q30.66-43.52 34.08-41.41L34.08-41.41L34.08-41.41Q37.50-39.30 37.50-35.71L37.50-35.71L37.50-35.71Q37.50-32.58 35.07-30.59L35.07-30.59L35.07-30.59Q32.96-28.93 30.40-28.93L30.40-28.93L30.40-28.93Q27.84-28.93 26.05-29.57ZM64.77-10.82L64.77-10.82L64.77-10.82Q66.37-9.73 66.37-7.33L66.37-7.33L66.37-7.33Q66.37-4.93 65.15-3.39L65.15-3.39L65.15-3.39Q63.94-1.86 61.95-0.83L61.95-0.83L61.95-0.83Q57.86 1.28 53.44 1.28L53.44 1.28L53.44 1.28Q49.02 1.28 46.43 0.32L46.43 0.32L46.43 0.32Q43.84-0.64 42.11-2.43L42.11-2.43L42.11-2.43Q38.72-5.82 38.72-12.03L38.72-12.03L38.72-12.03Q38.72-21.70 43.97-27.58L43.97-27.58L43.97-27.58Q49.60-33.92 59.39-33.92L59.39-33.92L59.39-33.92Q65.47-33.92 68.48-31.36L68.48-31.36L68.48-31.36Q70.72-29.44 70.72-26.30L70.72-26.30L70.72-26.30Q70.72-15.04 51.26-15.04L51.26-15.04L51.26-15.04Q51.01-13.38 51.01-11.97L51.01-11.97L51.01-11.97Q51.01-9.02 52.32-7.90L52.32-7.90L52.32-7.90Q53.63-6.78 56.06-6.78L56.06-6.78L56.06-6.78Q58.50-6.78 61.09-7.90L61.09-7.90L61.09-7.90Q63.68-9.02 64.77-10.82ZM51.71-17.79L51.71-17.79L51.71-17.79Q56.26-17.79 58.88-20.61L58.88-20.61L58.88-20.61Q61.50-23.30 61.50-27.58L61.50-27.58L61.50-27.58Q61.50-29.06 60.96-29.86L60.96-29.86L60.96-29.86Q60.42-30.66 59.33-30.66L59.33-30.66L59.33-30.66Q58.24-30.66 57.31-30.24L57.31-30.24L57.31-30.24Q56.38-29.82 55.42-28.42L55.42-28.42L55.42-28.42Q53.06-25.22 51.71-17.79ZM104.32-26.62L104.32-26.62L104.32-26.62Q104.32-23.94 102.08-22.27L102.08-22.27L102.08-22.27Q99.84-20.61 96.19-20.61L96.19-20.61L96.19-20.61Q94.66-20.61 93.76-21.06L93.76-21.06L93.76-21.06Q94.46-22.72 94.69-24.80L94.69-24.80L94.69-24.80Q94.91-26.88 94.91-27.46L94.91-27.46L94.91-27.46Q94.91-30.14 93.06-30.14L93.06-30.14L93.06-30.14Q91.78-30.14 90.34-28.54L90.34-28.54L90.34-28.54Q88.90-26.94 87.68-24.45L87.68-24.45L87.68-24.45Q84.99-18.69 84.99-12.86L84.99-12.86L84.99-12.86Q84.99-9.66 86.21-8.22L86.21-8.22L86.21-8.22Q87.42-6.78 90.11-6.78L90.11-6.78L90.11-6.78Q93.82-6.78 96.77-9.86L96.77-9.86L96.77-9.86Q97.60-10.82 98.05-11.90L98.05-11.90L98.05-11.90Q100.48-10.62 100.48-7.10L100.48-7.10L100.48-7.10Q100.48-3.52 96.51-1.15L96.51-1.15L96.51-1.15Q92.42 1.28 85.89 1.28L85.89 1.28L85.89 1.28Q72.90 1.28 72.90-12.48L72.90-12.48L72.90-12.48Q72.90-22.53 78.59-28.29L78.59-28.29L78.59-28.29Q84.10-33.92 94.21-33.92L94.21-33.92L94.21-33.92Q104.32-33.92 104.32-26.62ZM120 1.28L120 1.28L120 1.28Q105.92 1.28 105.92-11.97L105.92-11.97L105.92-11.97Q105.92-21.38 111.10-27.46L111.10-27.46L111.10-27.46Q116.61-33.92 126.14-33.92L126.14-33.92L126.14-33.92Q133.06-33.92 136.58-30.72L136.58-30.72L136.58-30.72Q140.10-27.52 140.10-20.80L140.10-20.80L140.10-20.80Q140.10-10.56 134.59-4.61L134.59-4.61L134.59-4.61Q129.22 1.28 120 1.28ZM121.66-26.56L121.66-26.56L121.66-26.56Q120.90-24.83 120.29-22.24L120.29-22.24L120.29-22.24Q119.68-19.65 118.91-15.55L118.91-15.55L118.91-15.55Q118.14-11.46 118.14-6.40L118.14-6.40L118.14-6.40Q118.14-4.74 118.69-3.65L118.69-3.65L118.69-3.65Q119.23-2.56 120.70-2.56L120.70-2.56L120.70-2.56Q122.18-2.56 123.10-3.26L123.10-3.26L123.10-3.26Q124.03-3.97 124.74-5.63L124.74-5.63L124.74-5.63Q126.02-8.58 127.04-14.05L127.04-14.05L127.04-14.05Q128.06-19.52 128.16-21.89L128.16-21.89L128.16-21.89Q128.26-24.26 128.26-26.02L128.26-26.02L128.26-26.02Q128.26-27.78 127.74-28.93L127.74-28.93L127.74-28.93Q127.23-30.08 125.79-30.08L125.79-30.08L125.79-30.08Q124.35-30.08 123.39-29.18L123.39-29.18L123.39-29.18Q122.43-28.29 121.66-26.56ZM170.94 1.28L170.94 1.28L170.94 1.28Q163.20 1.28 163.20-4.74L163.20-4.74L163.20-4.74Q163.26-6.40 163.78-9.22L163.78-9.22L164.93-15.10L164.93-15.10Q166.66-23.42 166.66-25.28L166.66-25.28L166.66-25.28Q166.66-28.99 164.48-28.99L164.48-28.99L164.48-28.99Q160.83-28.99 158.91-19.46L158.91-19.46L155.14 0L142.27 1.28L148.93-32.70L159.42-33.92L158.40-27.65L158.40-27.65Q161.41-33.92 170.62-33.92L170.62-33.92L170.62-33.92Q175.10-33.92 176.99-32.03L176.99-32.03L176.99-32.03Q178.88-30.14 178.88-25.92L178.88-25.92L178.88-25.92Q178.88-21.95 176.83-12.67L176.83-12.67L176.83-12.67Q175.87-8.51 175.87-6.94L175.87-6.94L175.87-6.94Q175.87-5.38 176.74-4.48L176.74-4.48L176.74-4.48Q177.60-3.58 178.88-3.46L178.88-3.46L178.88-3.46Q178.24-1.28 176.03 0L176.03 0L176.03 0Q173.82 1.28 170.94 1.28ZM204.16-33.92L204.16-33.92L204.16-33.92Q206.46-33.92 208.26-33.41L208.26-33.41L208.26-33.41Q208.32-33.66 208.45-34.37L208.45-34.37L208.77-36.35L208.77-36.35Q209.02-37.63 209.41-39.74L209.41-39.74L210.43-44.80L223.17-46.08L216.06-8.96L216.06-8.96Q216.00-8.58 216.00-7.94L216.00-7.94L216.00-6.91L216.00-6.91Q216.00-5.50 216.70-4.45L216.70-4.45L216.70-4.45Q217.41-3.39 218.56-3.39L218.56-3.39L218.56-3.39Q217.28-0.38 213.38 0.90L213.38 0.90L213.38 0.90Q212.03 1.28 210.14 1.28L210.14 1.28L210.14 1.28Q208.26 1.28 206.53 0.29L206.53 0.29L206.53 0.29Q204.80-0.70 204.29-2.37L204.29-2.37L204.29-2.37Q203.26-0.70 201.22 0.29L201.22 0.29L201.22 0.29Q199.17 1.28 196.19 1.28L196.19 1.28L196.19 1.28Q193.22 1.28 190.75 0.51L190.75 0.51L190.75 0.51Q188.29-0.26 186.75-1.92L186.75-1.92L186.75-1.92Q183.94-5.18 183.94-12.61L183.94-12.61L183.94-12.61Q183.94-22.21 189.57-28.03L189.57-28.03L189.57-28.03Q195.20-33.92 204.16-33.92ZM203.71-30.08L203.71-30.08L203.71-30.08Q201.34-30.08 200.06-27.52L200.06-27.52L200.06-27.52Q198.78-24.96 197.47-18.62L197.47-18.62L197.47-18.62Q196.16-12.29 196.16-6.59L196.16-6.59L196.16-6.59Q196.16-2.69 198.46-2.69L198.46-2.69L198.46-2.69Q200.51-2.69 201.95-4.74L201.95-4.74L201.95-4.74Q203.39-6.78 203.97-10.18L203.97-10.18L207.42-28.93L207.42-28.93Q206.08-30.08 203.71-30.08ZM249.02-42.69L249.02-42.69L249.02-42.69Q264.70-42.69 264.70-31.62L264.70-31.62L264.70-31.62Q264.70-25.54 260.80-21.89L260.80-21.89L260.80-21.89Q256.96-18.24 250.24-18.24L250.24-18.24L250.24-18.24Q247.10-18.24 244.67-20.03L244.67-20.03L244.67-20.03Q243.52-20.80 242.75-21.82L242.75-21.82L242.75-21.82Q247.42-21.82 249.89-24.67L249.89-24.67L249.89-24.67Q252.35-27.52 252.35-33.09L252.35-33.09L252.35-33.09Q252.35-38.66 246.85-38.66L246.85-38.66L245.31-38.66L245.31-38.66Q244.93-38.66 244.61-38.59L244.61-38.59L237.25 0L223.36 0L231.23-41.92L231.23-41.92Q238.08-42.56 242.05-42.62L242.05-42.62L242.05-42.62Q246.02-42.69 249.02-42.69ZM267.81-1.92L267.81-1.92L267.81-1.92Q266.30-3.58 265.63-6.21L265.63-6.21L265.63-6.21Q264.96-8.83 264.96-13.12L264.96-13.12L264.96-13.12Q264.96-17.41 266.43-21.31L266.43-21.31L266.43-21.31Q267.90-25.22 270.59-28.03L270.59-28.03L270.59-28.03Q276.10-33.92 285.18-33.92L285.18-33.92L285.18-33.92Q288.45-33.92 290.82-32.83L290.82-32.83L301.76-33.92L297.02-8.96L297.02-8.96Q296.83-8.19 296.83-6.78L296.83-6.78L296.83-6.78Q296.83-5.38 297.70-4.48L297.70-4.48L297.70-4.48Q298.56-3.58 299.84-3.46L299.84-3.46L299.84-3.46Q299.20-1.28 296.86 0L296.86 0L296.86 0Q294.53 1.28 291.90 1.28L291.90 1.28L291.90 1.28Q289.28 1.28 287.52 0.29L287.52 0.29L287.52 0.29Q285.76-0.70 285.25-2.37L285.25-2.37L285.25-2.37Q284.22-0.77 282.05 0.26L282.05 0.26L282.05 0.26Q279.87 1.28 276.96 1.28L276.96 1.28L276.96 1.28Q274.05 1.28 271.68 0.51L271.68 0.51L271.68 0.51Q269.31-0.26 267.81-1.92ZM281.31-27.90L281.31-27.90L281.31-27.90Q280.58-26.75 279.94-24.80L279.94-24.80L279.94-24.80Q279.30-22.85 278.24-17.63L278.24-17.63L278.24-17.63Q277.18-12.42 277.18-8.70L277.18-8.70L277.18-8.70Q277.18-4.99 277.76-3.90L277.76-3.90L277.76-3.90Q278.34-2.82 279.36-2.82L279.36-2.82L279.36-2.82Q281.41-2.82 282.91-4.77L282.91-4.77L282.91-4.77Q284.42-6.72 284.99-10.18L284.99-10.18L288.38-28.93L288.38-28.93Q287.04-30.08 285.47-30.08L285.47-30.08L285.47-30.08Q283.90-30.08 282.98-29.57L282.98-29.57L282.98-29.57Q282.05-29.06 281.31-27.90ZM352.96-10.69L352.96-10.69Q348.74-4.86 344.67-1.79L344.67-1.79L344.67-1.79Q340.61 1.28 336.42 1.28L336.42 1.28L336.42 1.28Q332.22 1.28 330.75 0.45L330.75 0.45L330.75-13.63L330.75-13.63Q327.10-3.90 320.58-0.13L320.58-0.13L320.58-0.13Q318.21 1.28 315.97 1.28L315.97 1.28L315.97 1.28Q311.68 1.28 309.82 0.45L309.82 0.45L309.82 0.45Q309.38-14.21 308.99-18.27L308.99-18.27L308.99-18.27Q308.61-22.34 308.29-24.83L308.29-24.83L308.29-24.83Q307.65-29.82 305.47-31.87L305.47-31.87L305.47-31.87Q308.22-33.92 312.06-33.92L312.06-33.92L312.06-33.92Q319.49-33.92 320.51-24.70L320.51-24.70L320.51-24.70Q320.77-22.53 320.77-20.22L320.77-20.22L320.77-20.22Q320.77-16.77 320-4.74L320-4.74L320-4.74Q321.54-5.44 323.17-7.97L323.17-7.97L323.17-7.97Q324.80-10.50 326.14-13.95L326.14-13.95L326.14-13.95Q329.15-21.95 329.15-28.86L329.15-28.86L329.15-28.86Q329.15-29.95 328.86-31.10L328.86-31.10L328.86-31.10Q328.58-32.26 328.26-32.58L328.26-32.58L328.26-32.58Q330.50-33.92 333.92-33.92L333.92-33.92L333.92-33.92Q337.34-33.92 338.98-31.58L338.98-31.58L338.98-31.58Q340.61-29.25 341.06-24.96L341.06-24.96L341.06-24.96Q341.57-19.52 341.57-16.26L341.57-16.26L341.57-16.26Q341.57-11.71 341.12-4.99L341.12-4.99L341.12-4.99Q344.32-7.30 346.94-14.85L346.94-14.85L346.94-14.85Q349.57-22.40 349.57-27.78L349.57-27.78L349.57-27.78Q349.57-30.14 349.18-31.55L349.18-31.55L349.18-31.55Q351.30-33.92 354.94-33.92L354.94-33.92L354.94-33.92Q357.18-33.92 358.82-32.70L358.82-32.70L358.82-32.70Q360.45-31.49 360.45-29.22L360.45-29.22L360.45-29.22Q360.45-26.94 359.78-24.51L359.78-24.51L359.78-24.51Q359.10-22.08 358.02-19.58L358.02-19.58L358.02-19.58Q355.90-14.59 352.96-10.69L352.96-10.69Z" fill="#585872"></path></g></g><style>text {
  font-size: 64px;
  font-family: Arial Black;
  dominant-baseline: central;
  text-anchor: middle;
}</style></svg>