<svg width="764.2701171875px" height="173.6px" xmlns="http://www.w3.org/2000/svg" viewBox="-132.13505859375 -11.799999999999997 764.2701171875 173.6" style="background: none;" preserveAspectRatio="xMidYMid"><defs>
  <filter id="editing-scratch" x="-100%" y="-100%" width="300%" height="300%">
    <!-- COLOR -->
    <feFlood flood-color="#ffcc00" flood-opacity="0.75" result="COLOR-blu"></feFlood>
    <feFlood flood-color="#72bee3" flood-opacity="0.4" result="COLOR-red"></feFlood>
    <!-- COLOR END -->

    <!-- Texture -->
    <feTurbulence baseFrequency=".05" type="fractalNoise" numOctaves="3" seed="0" result="Texture_10"></feTurbulence>
    <feColorMatrix type="matrix" values="0 0 0 0 0,
    0 0 0 0 0,
    0 0 0 0 0,
    0 0 0 -2.1 1.1" in="Texture_10" result="Texture_20"></feColorMatrix>

    <feColorMatrix result="Texture_30" type="matrix" values="0 0 0 0 0,
    0 0 0 0 0,
    0 0 0 0 0,
    0 0 0 -1.7 1.8" in="Texture_10"></feColorMatrix>
    <!-- Texture -->

    <!-- FILL -->
    <feOffset dx="-3" dy="4" in="SourceAlpha" result="FILL_10"></feOffset>
    <feDisplacementMap scale="17" in="FILL_10" in2="Texture_10" result="FILL_20"></feDisplacementMap>
    <feComposite operator="in" in="Texture_30" in2="FILL_20" result="FILL_40"></feComposite>
    <feComposite operator="in" in="COLOR-blu" in2="FILL_40" result="FILL_50"></feComposite>
    <!-- FILL END-->

    <!-- OUTLINE -->
    <feMorphology operator="dilate" radius="3" in="SourceGraphic" result="OUTLINE_10"></feMorphology>
    <feComposite operator="out" in="OUTLINE_10" in2="SourceGraphic" result="OUTLINE_20"></feComposite>
    <feDisplacementMap scale="7" in="OUTLINE_20" in2="Texture_10" result="OUTLINE_30"></feDisplacementMap>
    <feComposite operator="arithmetic" k2="-1" k3="1" in="Texture_20" in2="OUTLINE_30" result="OUTLINE_40"></feComposite>
    <!-- OUTLINE END-->

    <!-- BEVEL OUTLINE -->
    <feConvolveMatrix order="8,8" divisor="1" kernelMatrix="1 0 0 0 0 0 0 0 0 1 0 0 0 0 0 0 0 0 1 0 0 0 0 0 0 0 0 1 0 0 0 0 0 0 0 0 1 0 0 0 0 0 0 0 0 1 0 0 0 0 0 0 0 0 1 0 0 0 0 0 0 0 0 1 " in="SourceGraphic" result="BEVEL_10"></feConvolveMatrix>
    <feMorphology operator="dilate" radius="2" in="BEVEL_10" result="BEVEL_20"></feMorphology>
    <feComposite operator="out" in="BEVEL_20" in2="BEVEL_10" result="BEVEL_30"></feComposite>
    <feDisplacementMap scale="7" in="BEVEL_30" in2="Texture_10" result="BEVEL_40"></feDisplacementMap>
    <feComposite operator="arithmetic" k2="-1" k3="1" in="Texture_20" in2="BEVEL_40" result="BEVEL_50"></feComposite>
    <feOffset dx="-7" dy="-7" in="BEVEL_50" result="BEVEL_60"></feOffset>
    <feComposite operator="out" in="BEVEL_60" in2="OUTLINE_10" result="BEVEL_70"></feComposite>
    <!-- BEVEL OUTLINE END -->

    <!-- BEVEL FILL -->
    <feOffset dx="-9" dy="-9" in="BEVEL_10" result="BEVEL-FILL_10"></feOffset>
    <feComposite operator="out" in="BEVEL-FILL_10" in2="OUTLINE_10" result="BEVEL-FILL_20"></feComposite>
    <feDisplacementMap scale="17" in="BEVEL-FILL_20" in2="Texture_10" result="BEVEL-FILL_30"></feDisplacementMap>
    <feComposite operator="in" in="COLOR-red" in2="BEVEL-FILL_30" result="BEVEL-FILL_50"></feComposite> <!-- -->
    <!-- BEVEL FILL END-->

    <feMerge result="merge2">
     <feMergeNode in="BEVEL-FILL_50"></feMergeNode>
     <feMergeNode in="BEVEL_70"></feMergeNode>
     <feMergeNode in="FILL_50"></feMergeNode>
      <feMergeNode in="OUTLINE_40"></feMergeNode>
    </feMerge>
  </filter>
</defs>
<g filter="url(#editing-scratch)"><g transform="translate(-23.24496215581894, 110.88999938964844)"><path d="M39.48-44.81L39.48-44.81L39.48-44.81Q40.93-47.72 40.93-50.44L40.93-50.44L40.93-50.44Q40.93-53.16 40.64-54.66L40.64-54.66L40.64-54.66Q40.35-56.16 39.67-57.33L39.67-57.33L39.67-57.33Q38.22-59.85 35.31-59.85L35.31-59.85L35.31-59.85Q31.72-59.85 28.81-57.23L28.81-57.23L28.81-57.23Q25.71-54.51 25.71-50.25L25.71-50.25L25.71-50.25Q25.71-47.53 27.60-45.44L27.60-45.44L27.60-45.44Q29.49-43.36 32.40-41.42L32.40-41.42L32.40-41.42Q35.31-39.48 38.61-37.54L38.61-37.54L38.61-37.54Q41.90-35.60 44.81-33.27L44.81-33.27L44.81-33.27Q51.51-27.94 51.51-20.76L51.51-20.76L51.51-20.76Q51.51-15.91 48.94-11.79L48.94-11.79L48.94-11.79Q46.37-7.66 42.10-4.66L42.10-4.66L42.10-4.66Q32.79 1.94 20.47 1.94L20.47 1.94L20.47 1.94Q10.48 1.94 5.33-1.31L5.33-1.31L5.33-1.31Q0.19-4.56 0.19-9.51L0.19-9.51L0.19-9.51Q0.19-18.33 7.08-20.56L7.08-20.56L7.08-20.56Q9.02-21.24 11.98-21.24L11.98-21.24L11.98-21.24Q14.94-21.24 18.33-19.98L18.33-19.98L18.33-19.98Q16.78-16.00 16.78-12.42L16.78-12.42L16.78-12.42Q16.78-4.66 22.31-4.66L22.31-4.66L22.31-4.66Q25.90-4.66 28.86-7.28L28.86-7.28L28.86-7.28Q31.82-9.89 31.82-12.85L31.82-12.85L31.82-12.85Q31.82-15.81 29.92-17.95L29.92-17.95L29.92-17.95Q28.03-20.08 25.22-21.78L25.22-21.78L25.22-21.78Q22.41-23.47 19.16-25.12L19.16-25.12L19.16-25.12Q15.91-26.77 13.10-29.10L13.10-29.10L13.10-29.10Q6.50-34.44 6.50-42.97L6.50-42.97L6.50-42.97Q6.50-48.50 9.21-52.82L9.21-52.82L9.21-52.82Q11.93-57.13 16.30-60.04L16.30-60.04L16.30-60.04Q25.03-65.96 35.74-65.96L35.74-65.96L35.74-65.96Q46.46-65.96 51.65-62.76L51.65-62.76L51.65-62.76Q56.84-59.56 56.84-54.13L56.84-54.13L56.84-54.13Q56.84-49.37 53.16-46.37L53.16-46.37L53.16-46.37Q49.95-43.84 46.08-43.84L46.08-43.84L46.08-43.84Q42.20-43.84 39.48-44.81ZM98.16-16.39L98.16-16.39L98.16-16.39Q100.59-14.74 100.59-11.11L100.59-11.11L100.59-11.11Q100.59-7.47 98.75-5.14L98.75-5.14L98.75-5.14Q96.90-2.81 93.90-1.26L93.90-1.26L93.90-1.26Q87.69 1.94 81.00 1.94L81.00 1.94L81.00 1.94Q74.30 1.94 70.37 0.48L70.37 0.48L70.37 0.48Q66.45-0.97 63.83-3.69L63.83-3.69L63.83-3.69Q58.69-8.83 58.69-18.24L58.69-18.24L58.69-18.24Q58.69-32.88 66.64-41.81L66.64-41.81L66.64-41.81Q75.18-51.41 90.02-51.41L90.02-51.41L90.02-51.41Q99.23-51.41 103.79-47.53L103.79-47.53L103.79-47.53Q107.19-44.62 107.19-39.87L107.19-39.87L107.19-39.87Q107.19-22.80 77.70-22.80L77.70-22.80L77.70-22.80Q77.31-20.27 77.31-18.14L77.31-18.14L77.31-18.14Q77.31-13.68 79.30-11.98L79.30-11.98L79.30-11.98Q81.29-10.28 84.97-10.28L84.97-10.28L84.97-10.28Q88.66-10.28 92.59-11.98L92.59-11.98L92.59-11.98Q96.52-13.68 98.16-16.39ZM78.38-26.97L78.38-26.97L78.38-26.97Q85.26-26.97 89.24-31.23L89.24-31.23L89.24-31.23Q93.22-35.31 93.22-41.81L93.22-41.81L93.22-41.81Q93.22-44.04 92.39-45.25L92.39-45.25L92.39-45.25Q91.57-46.46 89.92-46.46L89.92-46.46L89.92-46.46Q88.27-46.46 86.86-45.83L86.86-45.83L86.86-45.83Q85.46-45.20 84.00-43.07L84.00-43.07L84.00-43.07Q80.41-38.22 78.38-26.97ZM158.11-40.35L158.11-40.35L158.11-40.35Q158.11-36.28 154.72-33.76L154.72-33.76L154.72-33.76Q151.32-31.23 145.79-31.23L145.79-31.23L145.79-31.23Q143.46-31.23 142.11-31.91L142.11-31.91L142.11-31.91Q143.17-34.44 143.51-37.59L143.51-37.59L143.51-37.59Q143.85-40.74 143.85-41.61L143.85-41.61L143.85-41.61Q143.85-45.69 141.04-45.69L141.04-45.69L141.04-45.69Q139.10-45.69 136.92-43.26L136.92-43.26L136.92-43.26Q134.73-40.84 132.89-37.05L132.89-37.05L132.89-37.05Q128.82-28.32 128.82-19.50L128.82-19.50L128.82-19.50Q128.82-14.65 130.66-12.46L130.66-12.46L130.66-12.46Q132.50-10.28 136.58-10.28L136.58-10.28L136.58-10.28Q142.20-10.28 146.66-14.94L146.66-14.94L146.66-14.94Q147.93-16.39 148.60-18.04L148.60-18.04L148.60-18.04Q152.29-16.10 152.29-10.77L152.29-10.77L152.29-10.77Q152.29-5.33 146.28-1.75L146.28-1.75L146.28-1.75Q140.07 1.94 130.17 1.94L130.17 1.94L130.17 1.94Q110.48 1.94 110.48-18.91L110.48-18.91L110.48-18.91Q110.48-34.14 119.12-42.87L119.12-42.87L119.12-42.87Q127.46-51.41 142.78-51.41L142.78-51.41L142.78-51.41Q158.11-51.41 158.11-40.35ZM181.88 1.94L181.88 1.94L181.88 1.94Q160.54 1.94 160.54-18.14L160.54-18.14L160.54-18.14Q160.54-32.40 168.39-41.61L168.39-41.61L168.39-41.61Q176.73-51.41 191.19-51.41L191.19-51.41L191.19-51.41Q201.66-51.41 207.00-46.56L207.00-46.56L207.00-46.56Q212.33-41.71 212.33-31.53L212.33-31.53L212.33-31.53Q212.33-16.00 203.99-6.98L203.99-6.98L203.99-6.98Q195.84 1.94 181.88 1.94ZM184.40-40.26L184.40-40.26L184.40-40.26Q183.23-37.64 182.31-33.71L182.31-33.71L182.31-33.71Q181.39-29.78 180.23-23.57L180.23-23.57L180.23-23.57Q179.06-17.36 179.06-9.70L179.06-9.70L179.06-9.70Q179.06-7.18 179.89-5.53L179.89-5.53L179.89-5.53Q180.71-3.88 182.94-3.88L182.94-3.88L182.94-3.88Q185.17-3.88 186.58-4.95L186.58-4.95L186.58-4.95Q187.99-6.01 189.05-8.54L189.05-8.54L189.05-8.54Q190.99-13.00 192.55-21.29L192.55-21.29L192.55-21.29Q194.10-29.59 194.24-33.17L194.24-33.17L194.24-33.17Q194.39-36.76 194.39-39.43L194.39-39.43L194.39-39.43Q194.39-42.10 193.61-43.84L193.61-43.84L193.61-43.84Q192.84-45.59 190.65-45.59L190.65-45.59L190.65-45.59Q188.47-45.59 187.02-44.23L187.02-44.23L187.02-44.23Q185.56-42.87 184.40-40.26ZM259.09 1.94L259.09 1.94L259.09 1.94Q247.35 1.94 247.35-7.18L247.35-7.18L247.35-7.18Q247.45-9.70 248.22-13.97L248.22-13.97L249.97-22.89L249.97-22.89Q252.59-35.50 252.59-38.31L252.59-38.31L252.59-38.31Q252.59-43.94 249.29-43.94L249.29-43.94L249.29-43.94Q243.76-43.94 240.85-29.49L240.85-29.49L235.13 0L215.63 1.94L225.72-49.57L241.63-51.41L240.08-41.90L240.08-41.90Q244.63-51.41 258.60-51.41L258.60-51.41L258.60-51.41Q265.39-51.41 268.25-48.55L268.25-48.55L268.25-48.55Q271.12-45.69 271.12-39.29L271.12-39.29L271.12-39.29Q271.12-33.27 268.01-19.21L268.01-19.21L268.01-19.21Q266.56-12.90 266.56-10.52L266.56-10.52L266.56-10.52Q266.56-8.15 267.87-6.79L267.87-6.79L267.87-6.79Q269.18-5.43 271.12-5.24L271.12-5.24L271.12-5.24Q270.14-1.94 266.80 0L266.80 0L266.80 0Q263.45 1.94 259.09 1.94ZM309.43-51.41L309.43-51.41L309.43-51.41Q312.92-51.41 315.64-50.63L315.64-50.63L315.64-50.63Q315.74-51.02 315.93-52.09L315.93-52.09L316.41-55.10L316.41-55.10Q316.80-57.04 317.38-60.24L317.38-60.24L318.94-67.90L338.24-69.84L327.47-13.58L327.47-13.58Q327.38-13.00 327.38-12.03L327.38-12.03L327.38-10.48L327.38-10.48Q327.38-8.34 328.44-6.74L328.44-6.74L328.44-6.74Q329.51-5.14 331.25-5.14L331.25-5.14L331.25-5.14Q329.31-0.58 323.40 1.36L323.40 1.36L323.40 1.36Q321.36 1.94 318.50 1.94L318.50 1.94L318.50 1.94Q315.64 1.94 313.02 0.44L313.02 0.44L313.02 0.44Q310.40-1.07 309.62-3.59L309.62-3.59L309.62-3.59Q308.07-1.07 304.97 0.44L304.97 0.44L304.97 0.44Q301.86 1.94 297.35 1.94L297.35 1.94L297.35 1.94Q292.84 1.94 289.11 0.78L289.11 0.78L289.11 0.78Q285.37-0.39 283.05-2.91L283.05-2.91L283.05-2.91Q278.78-7.86 278.78-19.11L278.78-19.11L278.78-19.11Q278.78-33.66 287.31-42.49L287.31-42.49L287.31-42.49Q295.85-51.41 309.43-51.41ZM308.75-45.59L308.75-45.59L308.75-45.59Q305.16-45.59 303.22-41.71L303.22-41.71L303.22-41.71Q301.28-37.83 299.29-28.23L299.29-28.23L299.29-28.23Q297.31-18.62 297.31-9.99L297.31-9.99L297.31-9.99Q297.31-4.07 300.80-4.07L300.80-4.07L300.80-4.07Q303.90-4.07 306.08-7.18L306.08-7.18L306.08-7.18Q308.27-10.28 309.14-15.42L309.14-15.42L314.38-43.84L314.38-43.84Q312.34-45.59 308.75-45.59ZM377.43-64.70L377.43-64.70L377.43-64.70Q401.19-64.70 401.19-47.92L401.19-47.92L401.19-47.92Q401.19-38.70 395.27-33.17L395.27-33.17L395.27-33.17Q389.45-27.64 379.27-27.64L379.27-27.64L379.27-27.64Q374.52-27.64 370.83-30.36L370.83-30.36L370.83-30.36Q369.08-31.53 367.92-33.08L367.92-33.08L367.92-33.08Q375.00-33.08 378.74-37.39L378.74-37.39L378.74-37.39Q382.47-41.71 382.47-50.15L382.47-50.15L382.47-50.15Q382.47-58.59 374.13-58.59L374.13-58.59L371.80-58.59L371.80-58.59Q371.22-58.59 370.73-58.49L370.73-58.49L359.58 0L338.53 0L350.46-63.54L350.46-63.54Q360.84-64.50 366.85-64.60L366.85-64.60L366.85-64.60Q372.87-64.70 377.43-64.70ZM405.90-2.91L405.90-2.91L405.90-2.91Q403.62-5.43 402.60-9.41L402.60-9.41L402.60-9.41Q401.58-13.39 401.58-19.89L401.58-19.89L401.58-19.89Q401.58-26.38 403.81-32.30L403.81-32.30L403.81-32.30Q406.04-38.22 410.12-42.49L410.12-42.49L410.12-42.49Q418.46-51.41 432.23-51.41L432.23-51.41L432.23-51.41Q437.18-51.41 440.77-49.76L440.77-49.76L457.36-51.41L450.18-13.58L450.18-13.58Q449.89-12.42 449.89-10.28L449.89-10.28L449.89-10.28Q449.89-8.15 451.20-6.79L451.20-6.79L451.20-6.79Q452.50-5.43 454.45-5.24L454.45-5.24L454.45-5.24Q453.48-1.94 449.93 0L449.93 0L449.93 0Q446.39 1.94 442.42 1.94L442.42 1.94L442.42 1.94Q438.44 1.94 435.77 0.44L435.77 0.44L435.77 0.44Q433.11-1.07 432.33-3.59L432.33-3.59L432.33-3.59Q430.78-1.16 427.48 0.39L427.48 0.39L427.48 0.39Q424.18 1.94 419.77 1.94L419.77 1.94L419.77 1.94Q415.35 1.94 411.77 0.78L411.77 0.78L411.77 0.78Q408.18-0.39 405.90-2.91ZM426.36-42.29L426.36-42.29L426.36-42.29Q425.25-40.55 424.28-37.59L424.28-37.59L424.28-37.59Q423.31-34.63 421.71-26.72L421.71-26.72L421.71-26.72Q420.11-18.82 420.11-13.19L420.11-13.19L420.11-13.19Q420.11-7.57 420.98-5.92L420.98-5.92L420.98-5.92Q421.85-4.27 423.41-4.27L423.41-4.27L423.41-4.27Q426.51-4.27 428.79-7.23L428.79-7.23L428.79-7.23Q431.07-10.19 431.94-15.42L431.94-15.42L437.08-43.84L437.08-43.84Q435.05-45.59 432.67-45.59L432.67-45.59L432.67-45.59Q430.29-45.59 428.89-44.81L428.89-44.81L428.89-44.81Q427.48-44.04 426.36-42.29ZM534.96-16.20L534.96-16.20Q528.55-7.37 522.39-2.72L522.39-2.72L522.39-2.72Q516.23 1.94 509.88 1.94L509.88 1.94L509.88 1.94Q503.53 1.94 501.30 0.68L501.30 0.68L501.30-20.66L501.30-20.66Q495.77-5.92 485.87-0.19L485.87-0.19L485.87-0.19Q482.28 1.94 478.89 1.94L478.89 1.94L478.89 1.94Q472.39 1.94 469.58 0.68L469.58 0.68L469.58 0.68Q468.90-21.53 468.32-27.69L468.32-27.69L468.32-27.69Q467.73-33.85 467.25-37.64L467.25-37.64L467.25-37.64Q466.28-45.20 462.98-48.31L462.98-48.31L462.98-48.31Q467.15-51.41 472.97-51.41L472.97-51.41L472.97-51.41Q484.22-51.41 485.78-37.44L485.78-37.44L485.78-37.44Q486.16-34.14 486.16-30.65L486.16-30.65L486.16-30.65Q486.16-25.41 485-7.18L485-7.18L485-7.18Q487.33-8.25 489.80-12.08L489.80-12.08L489.80-12.08Q492.28-15.91 494.31-21.15L494.31-21.15L494.31-21.15Q498.87-33.27 498.87-43.75L498.87-43.75L498.87-43.75Q498.87-45.40 498.43-47.14L498.43-47.14L498.43-47.14Q498.00-48.89 497.51-49.37L497.51-49.37L497.51-49.37Q500.91-51.41 506.10-51.41L506.10-51.41L506.10-51.41Q511.29-51.41 513.76-47.87L513.76-47.87L513.76-47.87Q516.23-44.33 516.91-37.83L516.91-37.83L516.91-37.83Q517.69-29.59 517.69-24.64L517.69-24.64L517.69-24.64Q517.69-17.75 517.01-7.57L517.01-7.57L517.01-7.57Q521.86-11.06 525.84-22.50L525.84-22.50L525.84-22.50Q529.81-33.95 529.81-42.10L529.81-42.10L529.81-42.10Q529.81-45.69 529.23-47.82L529.23-47.82L529.23-47.82Q532.43-51.41 537.96-51.41L537.96-51.41L537.96-51.41Q541.36-51.41 543.83-49.57L543.83-49.57L543.83-49.57Q546.30-47.72 546.30-44.28L546.30-44.28L546.30-44.28Q546.30-40.84 545.29-37.15L545.29-37.15L545.29-37.15Q544.27-33.47 542.62-29.68L542.62-29.68L542.62-29.68Q539.42-22.12 534.96-16.20L534.96-16.20Z" fill="#000000"></path></g></g><style>text {
  font-size: 64px;
  font-family: Arial Black;
  dominant-baseline: central;
  text-anchor: middle;
}</style></svg>