<svg width="400.17503662109374px" height="121.39999999999999px" xmlns="http://www.w3.org/2000/svg" viewBox="49.91248168945313 14.300000000000004 400.17503662109374 121.39999999999999" style="background: rgba(0, 0, 0, 0);" preserveAspectRatio="xMidYMid"><defs><filter id="editing-vr"><feFlood flood-color="#f00" flood-opacity="0.7" result="c1"></feFlood><feFlood flood-color="#00f" flood-opacity="0.7" result="c3"></feFlood><feComposite operator="in" in="c1" in2="SourceAlpha" result="text-c1"></feComposite><feComposite operator="in" in="c3" in2="SourceAlpha" result="text-c3"></feComposite><feOffset in="text-c1" dx="5" dy="-1" result="text1"></feOffset><feOffset in="text-c3" dx="-5" dy="1" result="text3"></feOffset><feBlend in="SourceGraphic" in2="text1" mode="multiply" result="text4"></feBlend><feBlend in="text4" in2="text3" mode="multiply"></feBlend></filter></defs><g filter="url(#editing-vr)"><g transform="translate(108.91496896743774, 104.76000022888184)"><path d="M6.21-31.17L6.21-31.17L6.21-31.17Q4.03-32.83 4.03-36.38L4.03-36.38L4.03-36.38Q4.03-39.94 6.37-41.79L6.37-41.79L6.37-41.79Q8.70-43.65 12.74-43.65L12.74-43.65L12.74-43.65Q15.30-43.65 21.38-42.75L21.38-42.75L25.73-42.11L25.73-42.11Q27.90-41.86 30.18-41.86L30.18-41.86L30.18-41.86Q32.45-41.86 33.98-42.82L33.98-42.82L33.98-42.82Q36.29-40.77 36.29-37.82L36.29-37.82L36.29-37.82Q36.29-34.88 33.66-32.77L33.66-32.77L33.66-32.77Q30.98-30.53 27.52-30.53L27.52-30.53L27.52-30.53Q25.86-30.53 23.17-30.98L23.17-30.98L23.17-30.98Q20.03-21.12 20.03-14.27L20.03-14.27L20.03-14.27Q20.03-7.42 23.49-3.84L23.49-3.84L23.49-3.84Q21.89-0.96 19.52 0.16L19.52 0.16L19.52 0.16Q17.15 1.28 13.60 1.28L13.60 1.28L13.60 1.28Q10.05 1.28 7.84-0.67L7.84-0.67L7.84-0.67Q5.63-2.62 5.63-6.66L5.63-6.66L5.63-6.66Q5.63-11.33 8.19-19.01L8.19-19.01L8.19-19.01Q10.75-26.62 14.59-32.45L14.59-32.45L14.59-32.45Q12.74-32.64 10.82-32.64L10.82-32.64L10.82-32.64Q6.85-32.64 6.21-31.17ZM53.89-17.98L53.89-17.98L53.89-17.98Q56.19-22.08 56.19-26.24L56.19-26.24L56.19-26.24Q56.19-28.99 54.21-28.99L54.21-28.99L54.21-28.99Q52.67-28.99 51.07-26.37L51.07-26.37L51.07-26.37Q49.41-23.74 48.90-20.35L48.90-20.35L45.57 0L32.32 1.28L38.85-32.64L49.41-33.92L48.26-27.46L48.26-27.46Q51.39-33.92 58.43-33.92L58.43-33.92L58.43-33.92Q62.14-33.92 64.16-32L64.16-32L64.16-32Q66.18-30.08 66.18-26.14L66.18-26.14L66.18-26.14Q66.18-22.21 63.58-19.71L63.58-19.71L63.58-19.71Q60.99-17.22 56.58-17.22L56.58-17.22L56.58-17.22Q54.66-17.22 53.89-17.98ZM93.12-10.82L93.12-10.82L93.12-10.82Q94.72-9.73 94.72-7.33L94.72-7.33L94.72-7.33Q94.72-4.93 93.50-3.39L93.50-3.39L93.50-3.39Q92.29-1.86 90.30-0.83L90.30-0.83L90.30-0.83Q86.21 1.28 81.79 1.28L81.79 1.28L81.79 1.28Q77.38 1.28 74.78 0.32L74.78 0.32L74.78 0.32Q72.19-0.64 70.46-2.43L70.46-2.43L70.46-2.43Q67.07-5.82 67.07-12.03L67.07-12.03L67.07-12.03Q67.07-21.70 72.32-27.58L72.32-27.58L72.32-27.58Q77.95-33.92 87.74-33.92L87.74-33.92L87.74-33.92Q93.82-33.92 96.83-31.36L96.83-31.36L96.83-31.36Q99.07-29.44 99.07-26.30L99.07-26.30L99.07-26.30Q99.07-15.04 79.62-15.04L79.62-15.04L79.62-15.04Q79.36-13.38 79.36-11.97L79.36-11.97L79.36-11.97Q79.36-9.02 80.67-7.90L80.67-7.90L80.67-7.90Q81.98-6.78 84.42-6.78L84.42-6.78L84.42-6.78Q86.85-6.78 89.44-7.90L89.44-7.90L89.44-7.90Q92.03-9.02 93.12-10.82ZM80.06-17.79L80.06-17.79L80.06-17.79Q84.61-17.79 87.23-20.61L87.23-20.61L87.23-20.61Q89.86-23.30 89.86-27.58L89.86-27.58L89.86-27.58Q89.86-29.06 89.31-29.86L89.31-29.86L89.31-29.86Q88.77-30.66 87.68-30.66L87.68-30.66L87.68-30.66Q86.59-30.66 85.66-30.24L85.66-30.24L85.66-30.24Q84.74-29.82 83.78-28.42L83.78-28.42L83.78-28.42Q81.41-25.22 80.06-17.79ZM128.32 1.28L128.32 1.28L128.32 1.28Q120.58 1.28 120.58-4.74L120.58-4.74L120.58-4.74Q120.64-6.40 121.15-9.22L121.15-9.22L122.30-15.10L122.30-15.10Q124.03-23.42 124.03-25.28L124.03-25.28L124.03-25.28Q124.03-28.99 121.86-28.99L121.86-28.99L121.86-28.99Q118.21-28.99 116.29-19.46L116.29-19.46L112.51 0L99.65 1.28L106.30-32.70L116.80-33.92L115.78-27.65L115.78-27.65Q118.78-33.92 128-33.92L128-33.92L128-33.92Q132.48-33.92 134.37-32.03L134.37-32.03L134.37-32.03Q136.26-30.14 136.26-25.92L136.26-25.92L136.26-25.92Q136.26-21.95 134.21-12.67L134.21-12.67L134.21-12.67Q133.25-8.51 133.25-6.94L133.25-6.94L133.25-6.94Q133.25-5.38 134.11-4.48L134.11-4.48L134.11-4.48Q134.98-3.58 136.26-3.46L136.26-3.46L136.26-3.46Q135.62-1.28 133.41 0L133.41 0L133.41 0Q131.20 1.28 128.32 1.28ZM161.54-33.92L161.54-33.92L161.54-33.92Q163.84-33.92 165.63-33.41L165.63-33.41L165.63-33.41Q165.70-33.66 165.82-34.37L165.82-34.37L166.14-36.35L166.14-36.35Q166.40-37.63 166.78-39.74L166.78-39.74L167.81-44.80L180.54-46.08L173.44-8.96L173.44-8.96Q173.38-8.58 173.38-7.94L173.38-7.94L173.38-6.91L173.38-6.91Q173.38-5.50 174.08-4.45L174.08-4.45L174.08-4.45Q174.78-3.39 175.94-3.39L175.94-3.39L175.94-3.39Q174.66-0.38 170.75 0.90L170.75 0.90L170.75 0.90Q169.41 1.28 167.52 1.28L167.52 1.28L167.52 1.28Q165.63 1.28 163.90 0.29L163.90 0.29L163.90 0.29Q162.18-0.70 161.66-2.37L161.66-2.37L161.66-2.37Q160.64-0.70 158.59 0.29L158.59 0.29L158.59 0.29Q156.54 1.28 153.57 1.28L153.57 1.28L153.57 1.28Q150.59 1.28 148.13 0.51L148.13 0.51L148.13 0.51Q145.66-0.26 144.13-1.92L144.13-1.92L144.13-1.92Q141.31-5.18 141.31-12.61L141.31-12.61L141.31-12.61Q141.31-22.21 146.94-28.03L146.94-28.03L146.94-28.03Q152.58-33.92 161.54-33.92ZM161.09-30.08L161.09-30.08L161.09-30.08Q158.72-30.08 157.44-27.52L157.44-27.52L157.44-27.52Q156.16-24.96 154.85-18.62L154.85-18.62L154.85-18.62Q153.54-12.29 153.54-6.59L153.54-6.59L153.54-6.59Q153.54-2.69 155.84-2.69L155.84-2.69L155.84-2.69Q157.89-2.69 159.33-4.74L159.33-4.74L159.33-4.74Q160.77-6.78 161.34-10.18L161.34-10.18L164.80-28.93L164.80-28.93Q163.46-30.08 161.09-30.08ZM196.74-3.52L196.74-3.52L196.74-3.52Q194.75 1.28 188.42 1.28L188.42 1.28L188.42 1.28Q185.15 1.28 183.10-0.96L183.10-0.96L183.10-0.96Q181.38-2.94 181.38-4.93L181.38-4.93L181.38-4.93Q181.38-10.11 183.74-20.22L183.74-20.22L186.11-32.64L199.10-33.92L195.20-13.70L195.20-13.70Q194.11-8.96 194.11-7.30L194.11-7.30L194.11-7.30Q194.11-3.65 196.74-3.52ZM187.26-41.54L187.26-41.54L187.26-41.54Q187.26-44.03 189.34-45.38L189.34-45.38L189.34-45.38Q191.42-46.72 194.43-46.72L194.43-46.72L194.43-46.72Q197.44-46.72 199.26-45.38L199.26-45.38L199.26-45.38Q201.09-44.03 201.09-41.54L201.09-41.54L201.09-41.54Q201.09-39.04 199.07-37.76L199.07-37.76L199.07-37.76Q197.06-36.48 194.05-36.48L194.05-36.48L194.05-36.48Q191.04-36.48 189.15-37.76L189.15-37.76L189.15-37.76Q187.26-39.04 187.26-41.54ZM229.25 1.28L229.25 1.28L229.25 1.28Q221.50 1.28 221.50-4.74L221.50-4.74L221.50-4.74Q221.57-6.40 222.08-9.22L222.08-9.22L223.23-15.10L223.23-15.10Q224.96-23.42 224.96-25.28L224.96-25.28L224.96-25.28Q224.96-28.99 222.78-28.99L222.78-28.99L222.78-28.99Q219.14-28.99 217.22-19.46L217.22-19.46L213.44 0L200.58 1.28L207.23-32.70L217.73-33.92L216.70-27.65L216.70-27.65Q219.71-33.92 228.93-33.92L228.93-33.92L228.93-33.92Q233.41-33.92 235.30-32.03L235.30-32.03L235.30-32.03Q237.18-30.14 237.18-25.92L237.18-25.92L237.18-25.92Q237.18-21.95 235.14-12.67L235.14-12.67L235.14-12.67Q234.18-8.51 234.18-6.94L234.18-6.94L234.18-6.94Q234.18-5.38 235.04-4.48L235.04-4.48L235.04-4.48Q235.90-3.58 237.18-3.46L237.18-3.46L237.18-3.46Q236.54-1.28 234.34 0L234.34 0L234.34 0Q232.13 1.28 229.25 1.28ZM246.85-26.75L246.85-26.75L246.85-26.75Q249.02-29.82 252.32-31.87L252.32-31.87L252.32-31.87Q255.62-33.92 259.65-33.92L259.65-33.92L259.65-33.92Q263.68-33.92 265.60-32.64L265.60-32.64L278.14-33.92L273.79-9.34L273.79-9.34Q271.55 3.20 266.82 8.13L266.82 8.13L266.82 8.13Q262.27 12.80 253.44 12.80L253.44 12.80L253.44 12.80Q246.72 12.80 242.88 10.69L242.88 10.69L242.88 10.69Q239.04 8.58 239.04 5.06L239.04 5.06L239.04 5.06Q239.04 2.43 241.02 0.93L241.02 0.93L241.02 0.93Q243.01-0.58 246.08-0.58L246.08-0.58L246.08-0.58Q248.77-0.58 250.82 0.64L250.82 0.64L250.82 0.64Q252.03 1.28 252.61 2.18L252.61 2.18L252.61 2.18Q251.14 3.46 251.14 5.57L251.14 5.57L251.14 5.57Q251.14 8.32 253.70 8.32L253.70 8.32L253.70 8.32Q257.98 8.32 260.42-1.79L260.42-1.79L260.42-1.79Q261.12-4.54 261.70-7.30L261.70-7.30L261.70-7.30Q258.82-3.78 252.29-3.78L252.29-3.78L252.29-3.78Q247.74-3.78 245.12-5.95L245.12-5.95L245.12-5.95Q242.50-8.13 242.50-13.25L242.50-13.25L242.50-13.25Q242.50-16.45 243.58-20.06L243.58-20.06L243.58-20.06Q244.67-23.68 246.85-26.75ZM255.17-13.06L255.17-13.06L255.17-13.06Q255.17-8.70 257.41-8.70L257.41-8.70L257.41-8.70Q258.94-8.70 260.42-10.37L260.42-10.37L260.42-10.37Q261.57-11.71 262.02-13.70L262.02-13.70L265.28-30.14L265.28-30.14Q264.96-30.21 264.64-30.34L264.64-30.34L264.64-30.34Q264-30.59 263.17-30.59L263.17-30.59L263.17-30.59Q259.26-30.59 256.96-24.19L256.96-24.19L256.96-24.19Q255.17-19.20 255.17-13.06Z" fill="#444"></path></g></g><style>text {
  font-size: 64px;
  font-family: Arial Black;
  dominant-baseline: central;
  text-anchor: middle;
}</style></svg>